<svg id="Grupo_316" data-name="Grupo 316" xmlns="http://www.w3.org/2000/svg" width="44.701" height="41.401" viewBox="0 0 44.701 41.401">
  <g id="Grupo_212" data-name="Grupo 212" transform="translate(13.372 23.378)">
    <g id="Grupo_210" data-name="Grupo 210" transform="translate(15.952)">
      <path id="Caminho_137" data-name="Caminho 137" d="M805.747,497.98a1.27,1.27,0,0,1-1.27-1.27V495a1.27,1.27,0,1,1,2.54,0v1.714A1.27,1.27,0,0,1,805.747,497.98Z" transform="translate(-804.477 -493.725)" fill="#e4aaac"/>
    </g>
    <g id="Grupo_211" data-name="Grupo 211">
      <path id="Caminho_138" data-name="Caminho 138" d="M772.615,497.98a1.27,1.27,0,0,1-1.27-1.27V495a1.27,1.27,0,1,1,2.54,0v1.714A1.27,1.27,0,0,1,772.615,497.98Z" transform="translate(-771.345 -493.725)" fill="#e4aaac"/>
    </g>
  </g>
  <g id="Grupo_213" data-name="Grupo 213" transform="translate(17.637 32.864)">
    <path id="Caminho_139" data-name="Caminho 139" d="M785.183,516.477a7.14,7.14,0,0,1-4.7-1.575.847.847,0,1,1,1.139-1.254,6.167,6.167,0,0,0,7.131,0,.847.847,0,1,1,1.139,1.254A7.142,7.142,0,0,1,785.183,516.477Z" transform="translate(-780.201 -513.428)" fill="#e4aaac"/>
  </g>
  <g id="Grupo_214" data-name="Grupo 214" transform="translate(6.393 29.241)">
    <path id="Caminho_140" data-name="Caminho 140" d="M772.912,518.063a17.254,17.254,0,0,1-16.007-11,.847.847,0,0,1,1.581-.608,15.454,15.454,0,0,0,28.857-.012.847.847,0,1,1,1.581.607A17.25,17.25,0,0,1,772.912,518.063Z" transform="translate(-756.849 -505.903)" fill="#e4aaac"/>
  </g>
  <g id="Grupo_217" data-name="Grupo 217" transform="translate(0 19.163)">
    <g id="Grupo_215" data-name="Grupo 215">
      <path id="Caminho_141" data-name="Caminho 141" d="M750.811,496.755h-.035c-5.287-.213-7.206-4.24-7.206-6.894,0-2.878,1.807-4.888,4.394-4.888a4.89,4.89,0,0,1,1.262.168.847.847,0,0,1-.438,1.636,3.185,3.185,0,0,0-.824-.11c-1.866,0-2.7,1.6-2.7,3.195a5.385,5.385,0,0,0,5.581,5.2.847.847,0,0,1-.034,1.693Z" transform="translate(-743.57 -484.971)" fill="#e4aaac"/>
    </g>
    <g id="Grupo_216" data-name="Grupo 216" transform="translate(36.831)">
      <path id="Caminho_142" data-name="Caminho 142" d="M820.916,496.743a.847.847,0,0,1-.053-1.692c4.259-.27,5.384-3.514,5.384-5.191,0-1.59-.835-3.195-2.7-3.195a3.131,3.131,0,0,0-.4.026.847.847,0,1,1-.214-1.68,4.809,4.809,0,0,1,.612-.039c2.587,0,4.394,2.01,4.394,4.888a7.011,7.011,0,0,1-6.97,6.881Z" transform="translate(-820.07 -484.971)" fill="#e4aaac"/>
    </g>
  </g>
  <g id="Grupo_223" data-name="Grupo 223" transform="translate(4.586 0)">
    <g id="Grupo_218" data-name="Grupo 218" transform="translate(29.722 7.4)">
      <path id="Caminho_143" data-name="Caminho 143" d="M820.323,474.034a.852.852,0,0,1-.847-.853c0-.012,0-.048,0-.059a16.269,16.269,0,0,0-4.42-11.157.847.847,0,1,1,1.235-1.158,17.964,17.964,0,0,1,4.878,12.328c0,.012,0,.047,0,.059A.841.841,0,0,1,820.323,474.034Z" transform="translate(-814.829 -460.539)" fill="#e4aaac"/>
    </g>
    <g id="Grupo_219" data-name="Grupo 219" transform="translate(0 1.964)">
      <path id="Caminho_144" data-name="Caminho 144" d="M753.947,468.279a.847.847,0,0,1-.847-.839v-.048c0-.038,0-.076,0-.114a18.053,18.053,0,0,1,18.032-18.032.847.847,0,1,1,0,1.693,16.357,16.357,0,0,0-16.338,16.339l0,.145a.847.847,0,0,1-.839.855Z" transform="translate(-753.096 -449.247)" fill="#e4aaac"/>
    </g>
    <g id="Grupo_220" data-name="Grupo 220" transform="translate(0 7.4)">
      <path id="Caminho_145" data-name="Caminho 145" d="M755.555,478.02h-1.612a.847.847,0,0,1-.847-.847v-3.886a.847.847,0,0,1,1.694,0v3.039h.765a1.132,1.132,0,0,0,1.2-1.045v-2.132a.847.847,0,0,1,.893-.846,5.341,5.341,0,0,0,3.424-1.044,2.626,2.626,0,0,0,.772-2.013.847.847,0,0,1,1.364-.671c1.773,1.366,4.717,2.089,8.513,2.089,6.7,0,9.159-3.5,11.141-9.542a.847.847,0,1,1,1.609.528c-1.777,5.418-4.224,10.707-12.75,10.707a17.668,17.668,0,0,1-8.376-1.683,4.027,4.027,0,0,1-1.112,1.819,6.33,6.33,0,0,1-3.783,1.479v1.31A2.823,2.823,0,0,1,755.555,478.02Z" transform="translate(-753.096 -460.538)" fill="#e4aaac"/>
    </g>
    <g id="Grupo_221" data-name="Grupo 221" transform="translate(27.07 1.816)">
      <path id="Caminho_146" data-name="Caminho 146" d="M812.82,456.218a.847.847,0,0,1-.8-1.111c.284-.869.52-1.562.829-2.462.324-.944.19-1.686-.35-1.935-.434-.2-1.119-.05-1.6.755a.847.847,0,0,1-1.457-.865,2.965,2.965,0,0,1,3.765-1.428c1.127.521,1.947,1.967,1.241,4.023-.306.891-.54,1.579-.822,2.44A.847.847,0,0,1,812.82,456.218Z" transform="translate(-809.321 -448.94)" fill="#e4aaac"/>
    </g>
    <g id="Grupo_222" data-name="Grupo 222" transform="translate(17.186)">
      <path id="Caminho_147" data-name="Caminho 147" d="M799.326,449.133a.835.835,0,0,1-.236-.034.847.847,0,0,1-.578-1.049.869.869,0,0,0-.35-1.112c-.33-.162-.9-.111-1.4.575-1.254,1.695-2.988,1.564-4.994,1.414-.67-.05-1.362-.1-2.128-.1a.847.847,0,0,1,0-1.693c.83,0,1.587.057,2.256.107,1.946.146,2.836.173,3.506-.732a2.8,2.8,0,0,1,3.515-1.086,2.539,2.539,0,0,1,1.226,3.1A.847.847,0,0,1,799.326,449.133Z" transform="translate(-788.791 -445.168)" fill="#e4aaac"/>
    </g>
  </g>
  <g id="Grupo_224" data-name="Grupo 224" transform="translate(30.242 15.26)">
    <path id="Caminho_148" data-name="Caminho 148" d="M815.945,486.485H814.49a2.942,2.942,0,0,1-3.018-2.854v-1.195a6.329,6.329,0,0,1-3.783-1.479,4.284,4.284,0,0,1-1.305-3.247.847.847,0,1,1,1.693,0,2.625,2.625,0,0,0,.772,2.013,5.344,5.344,0,0,0,3.426,1.044.849.849,0,0,1,.891.846v2.018a1.252,1.252,0,0,0,1.324,1.16h.609v-2.543a.847.847,0,1,1,1.693,0v3.389A.847.847,0,0,1,815.945,486.485Z" transform="translate(-806.384 -476.864)" fill="#e4aaac"/>
  </g>
</svg>
