<svg id="Grupo_317" data-name="Grupo 317" xmlns="http://www.w3.org/2000/svg" width="60.756" height="39.437" viewBox="0 0 60.756 39.437">
  <g id="Grupo_226" data-name="Grupo 226" transform="translate(12.349 11.255)">
    <path id="Caminho_149" data-name="Caminho 149" d="M379.478,481.378a16.913,16.913,0,0,1-4.916-.892l-.408-.117a.847.847,0,0,1,.467-1.628l.412.118a15.574,15.574,0,0,0,4.445.826,17.531,17.531,0,0,0,14.015-6.725.847.847,0,0,1,1.352,1.02A19.232,19.232,0,0,1,379.478,481.378Z" transform="translate(-373.54 -472.624)" fill="#e4aaac"/>
  </g>
  <g id="Grupo_227" data-name="Grupo 227" transform="translate(32.131 11.255)">
    <path id="Caminho_150" data-name="Caminho 150" d="M429.329,480.355a19.306,19.306,0,0,1-14.488-6.322.847.847,0,0,1,1.267-1.125,17.611,17.611,0,0,0,13.221,5.753c.172,0,.343-.006.513-.011l.091,0a.847.847,0,0,1,.053,1.693l-.09,0C429.708,480.35,429.519,480.355,429.329,480.355Z" transform="translate(-414.627 -472.624)" fill="#e4aaac"/>
  </g>
  <g id="Grupo_228" data-name="Grupo 228" transform="translate(25.396 30.9)">
    <path id="Caminho_151" data-name="Caminho 151" d="M405.62,516.477a7.14,7.14,0,0,1-4.7-1.575.847.847,0,1,1,1.139-1.253,6.167,6.167,0,0,0,7.131,0,.847.847,0,1,1,1.139,1.253A7.14,7.14,0,0,1,405.62,516.477Z" transform="translate(-400.638 -513.427)" fill="#e4aaac"/>
  </g>
  <g id="Grupo_229" data-name="Grupo 229" transform="translate(14.152 27.277)">
    <path id="Caminho_152" data-name="Caminho 152" d="M393.349,518.062a17.252,17.252,0,0,1-16.007-11,.847.847,0,1,1,1.581-.608,15.455,15.455,0,0,0,28.857-.011.847.847,0,1,1,1.581.607A17.251,17.251,0,0,1,393.349,518.062Z" transform="translate(-377.285 -505.902)" fill="#e4aaac"/>
  </g>
  <g id="Grupo_233" data-name="Grupo 233" transform="translate(7.759 0)">
    <g id="Grupo_230" data-name="Grupo 230" transform="translate(4.586)">
      <path id="Caminho_153" data-name="Caminho 153" d="M374.383,468.279a.846.846,0,0,1-.846-.838v-.048c0-.038,0-.076,0-.114a18.032,18.032,0,1,1,36.064,0c0,.01,0,.045,0,.055a.847.847,0,1,1-1.694-.008c0-.01,0-.044,0-.054a16.339,16.339,0,0,0-32.677.008l0,.145a.846.846,0,0,1-.839.855Z" transform="translate(-373.532 -449.247)" fill="#e4aaac"/>
    </g>
    <g id="Grupo_231" data-name="Grupo 231" transform="translate(0 17.2)">
      <path id="Caminho_154" data-name="Caminho 154" d="M371.248,496.755h-.035c-5.287-.213-7.206-4.24-7.206-6.9,0-2.878,1.807-4.888,4.394-4.888a4.9,4.9,0,0,1,1.261.168.847.847,0,0,1-.437,1.636,3.2,3.2,0,0,0-.824-.111c-1.866,0-2.7,1.6-2.7,3.195a5.386,5.386,0,0,0,5.581,5.2.847.847,0,0,1-.034,1.693Z" transform="translate(-364.007 -484.971)" fill="#e4aaac"/>
    </g>
    <g id="Grupo_232" data-name="Grupo 232" transform="translate(36.831 17.2)">
      <path id="Caminho_155" data-name="Caminho 155" d="M441.352,496.743a.847.847,0,0,1-.052-1.692c4.258-.27,5.383-3.514,5.383-5.192,0-1.59-.835-3.195-2.7-3.195a3.247,3.247,0,0,0-.4.026.847.847,0,1,1-.212-1.68,4.8,4.8,0,0,1,.611-.039c2.587,0,4.394,2.01,4.394,4.888a7.011,7.011,0,0,1-6.97,6.881Z" transform="translate(-440.505 -484.971)" fill="#e4aaac"/>
    </g>
  </g>
  <g id="Grupo_236" data-name="Grupo 236" transform="translate(20.972 21.414)">
    <g id="Grupo_234" data-name="Grupo 234" transform="translate(15.952)">
      <path id="Caminho_156" data-name="Caminho 156" d="M425.853,497.98a1.27,1.27,0,0,1-1.27-1.27V495a1.27,1.27,0,1,1,2.54,0v1.714A1.27,1.27,0,0,1,425.853,497.98Z" transform="translate(-424.583 -493.725)" fill="#e4aaac"/>
    </g>
    <g id="Grupo_235" data-name="Grupo 235">
      <path id="Caminho_157" data-name="Caminho 157" d="M392.72,497.98a1.27,1.27,0,0,1-1.27-1.27V495a1.27,1.27,0,1,1,2.54,0v1.714A1.27,1.27,0,0,1,392.72,497.98Z" transform="translate(-391.45 -493.725)" fill="#e4aaac"/>
    </g>
  </g>
  <g id="Grupo_237" data-name="Grupo 237" transform="translate(0 0.363)">
    <path id="Caminho_158" data-name="Caminho 158" d="M355.958,465.833a9.1,9.1,0,0,1-7.367-3.766,2.968,2.968,0,0,1-.553-2.737,2.153,2.153,0,0,1,2.26-1.157,2.6,2.6,0,0,0,2.778-1.864l.024-.052c1.351-2.933,2.881-6.257,7.858-6.257a5.423,5.423,0,0,1,4.048,1.526,6.213,6.213,0,0,1,1.578,4.119.859.859,0,0,1-.866.827.846.846,0,0,1-.827-.862,4.532,4.532,0,0,0-1.1-2.909,3.81,3.81,0,0,0-2.828-1.007c-3.893,0-5.017,2.443-6.32,5.271l-.024.052a4.234,4.234,0,0,1-4.269,2.848,2.47,2.47,0,0,0-.725.078.278.278,0,0,0-.022.043c-.053.127.009.55.4,1.143a7.444,7.444,0,0,0,5.956,3.011c4.2,0,5.143-2.018,5.18-2.1a.855.855,0,0,1,1.105-.447.841.841,0,0,1,.463,1.087C362.655,462.8,361.389,465.833,355.958,465.833Z" transform="translate(-347.89 -450)" fill="#e4aaac"/>
  </g>
  <g id="Grupo_238" data-name="Grupo 238" transform="translate(42.062 0.363)">
    <path id="Caminho_159" data-name="Caminho 159" d="M445.88,465.833c-5.431,0-6.7-3.029-6.749-3.158a.847.847,0,1,1,1.574-.625c.032.072.97,2.091,5.175,2.091a7.444,7.444,0,0,0,5.956-3.011c.394-.593.456-1.016.4-1.143a.183.183,0,0,0-.024-.045,2.518,2.518,0,0,0-.723-.076,4.234,4.234,0,0,1-4.269-2.848l-.024-.052c-1.3-2.829-2.427-5.271-6.32-5.271a3.81,3.81,0,0,0-2.828,1.007,4.533,4.533,0,0,0-1.1,2.909.847.847,0,0,1-1.693.035,6.213,6.213,0,0,1,1.578-4.119A5.423,5.423,0,0,1,440.881,450c4.977,0,6.508,3.324,7.858,6.257l.024.052a2.6,2.6,0,0,0,2.779,1.864,2.153,2.153,0,0,1,2.26,1.157,2.967,2.967,0,0,1-.553,2.737A9.1,9.1,0,0,1,445.88,465.833Z" transform="translate(-435.254 -450)" fill="#e4aaac"/>
  </g>
</svg>
