<svg id="Grupo_315" data-name="Grupo 315" xmlns="http://www.w3.org/2000/svg" width="48.05" height="43.837" viewBox="0 0 48.05 43.837">
  <g id="Grupo_84" data-name="Grupo 84" transform="translate(3.963 3.714)">
    <path id="Caminho_60" data-name="Caminho 60" d="M389.378,369.427a20.062,20.062,0,1,1,4.4-39.639.806.806,0,0,1-.352,1.573,18.453,18.453,0,1,0,14.4,18,18.33,18.33,0,0,0-1.505-7.311.806.806,0,0,1,1.48-.639,20.073,20.073,0,0,1-18.424,28.013Z" transform="translate(-369.316 -329.303)" fill="#e4aaac"/>
  </g>
  <g id="Grupo_88" data-name="Grupo 88" transform="translate(11.644 3.714)">
    <g id="Grupo_85" data-name="Grupo 85" transform="translate(16.052 15.352)">
      <path id="Caminho_61" data-name="Caminho 61" d="M426.514,366.352a.806.806,0,0,1-.806-.806,2.743,2.743,0,0,0-5.486,0,.806.806,0,1,1-1.612,0,4.355,4.355,0,1,1,8.71,0A.806.806,0,0,1,426.514,366.352Z" transform="translate(-418.61 -361.19)" fill="#e4aaac"/>
    </g>
    <g id="Grupo_86" data-name="Grupo 86" transform="translate(0 15.352)">
      <path id="Caminho_62" data-name="Caminho 62" d="M393.174,366.352a.806.806,0,0,1-.806-.806,2.743,2.743,0,0,0-5.486,0,.806.806,0,1,1-1.612,0,4.355,4.355,0,1,1,8.71,0A.806.806,0,0,1,393.174,366.352Z" transform="translate(-385.27 -361.19)" fill="#e4aaac"/>
    </g>
    <g id="Grupo_87" data-name="Grupo 87" transform="translate(8.026)">
      <path id="Caminho_63" data-name="Caminho 63" d="M406.3,338.013a4.355,4.355,0,1,1,0-8.71.806.806,0,1,1,0,1.612,2.743,2.743,0,0,0,0,5.486.806.806,0,1,1,0,1.612Z" transform="translate(-401.94 -329.303)" fill="#e4aaac"/>
    </g>
  </g>
  <g id="Grupo_89" data-name="Grupo 89" transform="translate(19.67 31.595)">
    <path id="Caminho_64" data-name="Caminho 64" d="M406.3,392.374a4.36,4.36,0,0,1-4.355-4.355.806.806,0,0,1,1.612,0,2.743,2.743,0,0,0,5.486,0,.806.806,0,1,1,1.612,0A4.36,4.36,0,0,1,406.3,392.374Z" transform="translate(-401.94 -387.213)" fill="#e4aaac"/>
  </g>
  <g id="Grupo_92" data-name="Grupo 92" transform="translate(0 19.42)">
    <g id="Grupo_90" data-name="Grupo 90">
      <path id="Caminho_65" data-name="Caminho 65" d="M365.44,370.636a4.355,4.355,0,1,1,0-8.71.806.806,0,0,1,0,1.612,2.743,2.743,0,1,0,0,5.486.806.806,0,0,1,0,1.612Z" transform="translate(-361.085 -361.926)" fill="#e4aaac"/>
    </g>
    <g id="Grupo_91" data-name="Grupo 91" transform="translate(42.889)">
      <path id="Caminho_66" data-name="Caminho 66" d="M450.972,370.636a.806.806,0,0,1,0-1.612,2.743,2.743,0,1,0,0-5.486.806.806,0,0,1,0-1.612,4.355,4.355,0,1,1,0,8.71Z" transform="translate(-450.166 -361.926)" fill="#e4aaac"/>
    </g>
  </g>
  <g id="Grupo_93" data-name="Grupo 93" transform="translate(32.154 4.713)">
    <path id="Caminho_67" data-name="Caminho 67" d="M432.223,340.085a4.353,4.353,0,0,1-3.08-7.433h0a4.355,4.355,0,1,1,3.079,7.433Zm-1.939-6.293a2.743,2.743,0,1,0,3.879,0,2.746,2.746,0,0,0-3.879,0Z" transform="translate(-427.87 -331.379)" fill="#e4aaac"/>
  </g>
  <g id="Grupo_94" data-name="Grupo 94" transform="translate(37.413 9.972)">
    <path id="Caminho_68" data-name="Caminho 68" d="M441.25,350.462a2.478,2.478,0,0,1-.95-.192,2.4,2.4,0,0,1-1.508-2.256v-.806A4.911,4.911,0,0,1,443.7,342.3h.806a2.442,2.442,0,0,1,1.727,4.169l-3.27,3.27A2.407,2.407,0,0,1,441.25,350.462Zm2.448-6.548a3.3,3.3,0,0,0-3.293,3.294v.806a.83.83,0,0,0,1.417.586l3.27-3.27a.83.83,0,0,0-.587-1.417Z" transform="translate(-438.792 -342.302)" fill="#e4aaac"/>
  </g>
  <g id="Grupo_95" data-name="Grupo 95" transform="translate(27.441 0)">
    <path id="Caminho_69" data-name="Caminho 69" d="M421.336,329.75h-.806a2.442,2.442,0,0,1-1.727-4.169l3.27-3.27a2.442,2.442,0,0,1,4.169,1.727v.806A4.911,4.911,0,0,1,421.336,329.75Zm2.448-6.544a.788.788,0,0,0-.572.246l-3.27,3.27a.83.83,0,0,0,.587,1.417h.806a3.3,3.3,0,0,0,3.294-3.294v-.806a.814.814,0,0,0-.513-.766A.889.889,0,0,0,423.784,323.206Z" transform="translate(-418.081 -321.59)" fill="#e4aaac"/>
  </g>
</svg>
