<svg id="Grupo_318" data-name="Grupo 318" xmlns="http://www.w3.org/2000/svg" width="44.702" height="48.668" viewBox="0 0 44.702 48.668">
  <g id="Grupo_253" data-name="Grupo 253" transform="translate(17.637 40.131)">
    <path id="Caminho_170" data-name="Caminho 170" d="M662.228,396.284a7.14,7.14,0,0,1-4.7-1.575.847.847,0,1,1,1.139-1.254,6.166,6.166,0,0,0,7.132,0,.847.847,0,0,1,1.139,1.254A7.143,7.143,0,0,1,662.228,396.284Z" transform="translate(-657.246 -393.235)" fill="#f1f1f1"/>
  </g>
  <g id="Grupo_254" data-name="Grupo 254" transform="translate(6.393 36.508)">
    <path id="Caminho_171" data-name="Caminho 171" d="M649.957,397.87a17.252,17.252,0,0,1-16.007-11,.847.847,0,0,1,1.581-.608,15.454,15.454,0,0,0,28.857-.012.847.847,0,0,1,1.582.607A17.251,17.251,0,0,1,649.957,397.87Z" transform="translate(-633.894 -385.71)" fill="#f1f1f1"/>
  </g>
  <g id="Grupo_258" data-name="Grupo 258" transform="translate(0 9.231)">
    <g id="Grupo_255" data-name="Grupo 255" transform="translate(4.586)">
      <path id="Caminho_172" data-name="Caminho 172" d="M630.992,348.087a.847.847,0,0,1-.847-.842V347.2c0-.037,0-.074,0-.111a18.032,18.032,0,1,1,36.064,0c0,.011,0,.044,0,.055a.847.847,0,1,1-1.694-.008c0-.011,0-.045,0-.055a16.339,16.339,0,0,0-32.677.008l0,.148a.847.847,0,0,1-.841.853Z" transform="translate(-630.141 -329.054)" fill="#f1f1f1"/>
    </g>
    <g id="Grupo_256" data-name="Grupo 256" transform="translate(0 17.2)">
      <path id="Caminho_173" data-name="Caminho 173" d="M627.856,376.562h-.035c-5.287-.214-7.206-4.24-7.206-6.894,0-2.879,1.807-4.889,4.395-4.889a4.887,4.887,0,0,1,1.261.168.847.847,0,0,1-.438,1.636,3.181,3.181,0,0,0-.823-.11c-1.866,0-2.7,1.6-2.7,3.2a5.385,5.385,0,0,0,5.581,5.2.847.847,0,0,1-.033,1.693Z" transform="translate(-620.615 -364.778)" fill="#f1f1f1"/>
    </g>
    <g id="Grupo_257" data-name="Grupo 257" transform="translate(36.831 17.2)">
      <path id="Caminho_174" data-name="Caminho 174" d="M697.961,376.55a.847.847,0,0,1-.053-1.692c4.258-.27,5.384-3.514,5.384-5.191,0-1.591-.835-3.2-2.7-3.2a3.133,3.133,0,0,0-.4.026.847.847,0,1,1-.214-1.68,4.886,4.886,0,0,1,.612-.039c2.587,0,4.394,2.01,4.394,4.889a7.012,7.012,0,0,1-6.97,6.882Z" transform="translate(-697.114 -364.778)" fill="#f1f1f1"/>
    </g>
  </g>
  <g id="Grupo_261" data-name="Grupo 261" transform="translate(13.213 30.645)">
    <g id="Grupo_259" data-name="Grupo 259" transform="translate(15.952)">
      <path id="Caminho_175" data-name="Caminho 175" d="M682.462,377.787a1.27,1.27,0,0,1-1.27-1.271V374.8a1.27,1.27,0,1,1,2.54,0v1.714A1.27,1.27,0,0,1,682.462,377.787Z" transform="translate(-681.192 -373.532)" fill="#f1f1f1"/>
    </g>
    <g id="Grupo_260" data-name="Grupo 260">
      <path id="Caminho_176" data-name="Caminho 176" d="M649.329,377.787a1.27,1.27,0,0,1-1.27-1.271V374.8a1.27,1.27,0,1,1,2.54,0v1.714A1.27,1.27,0,0,1,649.329,377.787Z" transform="translate(-648.059 -373.532)" fill="#f1f1f1"/>
    </g>
  </g>
  <g id="Grupo_264" data-name="Grupo 264" transform="translate(17.636 0)">
    <g id="Grupo_262" data-name="Grupo 262" transform="translate(0 2.806)">
      <path id="Caminho_177" data-name="Caminho 177" d="M661.259,321.722a4.018,4.018,0,0,1-4.013-4.013c0-.152.008-.305.024-.469a.847.847,0,1,1,1.686.165c-.01.1-.016.2-.016.3a2.322,2.322,0,0,0,2.32,2.32,1.3,1.3,0,0,0,1.444-1.445,1.18,1.18,0,0,0-1.18-1.179.847.847,0,0,1,0-1.694,2.876,2.876,0,0,1,2.873,2.873A2.971,2.971,0,0,1,661.259,321.722Z" transform="translate(-657.246 -315.711)" fill="#f1f1f1"/>
    </g>
    <g id="Grupo_263" data-name="Grupo 263" transform="translate(0.02)">
      <path id="Caminho_178" data-name="Caminho 178" d="M660.569,324.585a.847.847,0,1,1,0-1.693c2.252,0,5.6-1.922,5.6-7.216a3.812,3.812,0,0,0-4.1-4.1,3.1,3.1,0,0,0-3.1,2.806.847.847,0,1,1-1.686-.164,4.784,4.784,0,0,1,4.781-4.336,5.485,5.485,0,0,1,5.794,5.794C667.866,322.213,663.5,324.585,660.569,324.585Z" transform="translate(-657.288 -309.882)" fill="#f1f1f1"/>
    </g>
  </g>
</svg>
