<svg xmlns="http://www.w3.org/2000/svg" width="1396" height="497" viewBox="0 0 1396 497">
  <g id="img-fundo" transform="translate(-262 -4604)">
    <g id="Grupo_361" data-name="Grupo 361" transform="translate(262 4604)" opacity="0.04">
      <g id="Grupo_312" data-name="Grupo 312" transform="translate(0 0)">
        <path id="Caminho_221" data-name="Caminho 221" d="M1437.271-39.578c-13.333-20.966-40.1-11.077-40.667,12.066-11.143-18.4-31.453-33.23-54.584-14.241s-16.083,84.807,49.536,109.308c-30.1-17.728-50.1-46.705-49.524-75.781s24.953-37.087,42.667-3.264c-12.952.2-24.423,8.752-25.714,25.516-1.143,14.835,11.582,37.461,41.905,36.592C1428.509,49.826,1463.414,1.531,1437.271-39.578Zm-41.715,81.1c-27.784,1.23-41.393-39.2-17.667-45.889,14.185-4,17.459,19.148,21.744,18.851s-2.891-7.573-1.748-8.562,4.462,4.853,11.129,2.677-7.129-4.26-6.176-5.545,9.65,3.568,9.824-.986c.1-2.584-9.353-5.346-8.586-7.223,1.143-2.794,8.895-5.54,6.524-10.468-.748-1.555-.5,2.947-5.667,2.754-5.286-.2-5.614-6.08-2.758-16.272,2.286-8.159,10.462-14.939,20-11.571,7.143,2.522,20.238,11.818,15.857,38.125S1420.054,40.434,1395.557,41.519Z" transform="translate(-1330 51.079)" fill="#fff"/>
      </g>
      <path id="Caminho_222" data-name="Caminho 222" d="M1385.446-38.476c-11.565-8.91-26.578-11.694-42.957,1.254-16.871,13.337-18.28,49.779,5.988,78.778C1310.856-10.1,1346.153-58.547,1385.446-38.476Z" transform="translate(-1330.007 46.547)" fill="#fff"/>
      <path id="Caminho_223" data-name="Caminho 223" d="M1825.027,310.091c-12.492,10.445-29.592,15.8-53.057,3.565,7.069,5.639,17.083,9.455,30.355,9.089,24.555-.677,54.649-36.175,45.764-72.171C1851.609,269.986,1844,294.228,1825.027,310.091Z" transform="translate(-1733.187 -221.048)" fill="#fff"/>
    </g>
    <g id="Grupo_422" data-name="Grupo 422" transform="translate(773.8 4604)" opacity="0.04">
      <g id="Grupo_312-2" data-name="Grupo 312" transform="translate(0 0)">
        <path id="Caminho_221-2" data-name="Caminho 221" d="M1437.271-39.578c-13.333-20.966-40.1-11.077-40.667,12.066-11.143-18.4-31.453-33.23-54.584-14.241s-16.083,84.807,49.536,109.308c-30.1-17.728-50.1-46.705-49.524-75.781s24.953-37.087,42.667-3.264c-12.952.2-24.423,8.752-25.714,25.516-1.143,14.835,11.582,37.461,41.905,36.592C1428.509,49.826,1463.414,1.531,1437.271-39.578Zm-41.715,81.1c-27.784,1.23-41.393-39.2-17.667-45.889,14.185-4,17.459,19.148,21.744,18.851s-2.891-7.573-1.748-8.562,4.462,4.853,11.129,2.677-7.129-4.26-6.176-5.545,9.65,3.568,9.824-.986c.1-2.584-9.353-5.346-8.586-7.223,1.143-2.794,8.895-5.54,6.524-10.468-.748-1.555-.5,2.947-5.667,2.754-5.286-.2-5.614-6.08-2.758-16.272,2.286-8.159,10.462-14.939,20-11.571,7.143,2.522,20.238,11.818,15.857,38.125S1420.054,40.434,1395.557,41.519Z" transform="translate(-1330 51.079)" fill="#fff"/>
      </g>
      <path id="Caminho_222-2" data-name="Caminho 222" d="M1385.446-38.476c-11.565-8.91-26.578-11.694-42.957,1.254-16.871,13.337-18.28,49.779,5.988,78.778C1310.856-10.1,1346.153-58.547,1385.446-38.476Z" transform="translate(-1330.007 46.547)" fill="#fff"/>
      <path id="Caminho_223-2" data-name="Caminho 223" d="M1825.027,310.091c-12.492,10.445-29.592,15.8-53.057,3.565,7.069,5.639,17.083,9.455,30.355,9.089,24.555-.677,54.649-36.175,45.764-72.171C1851.609,269.986,1844,294.228,1825.027,310.091Z" transform="translate(-1733.187 -221.048)" fill="#fff"/>
    </g>
    <g id="Grupo_438" data-name="Grupo 438" transform="translate(1285.6 4604)" opacity="0.04">
      <g id="Grupo_312-3" data-name="Grupo 312" transform="translate(0 0)">
        <path id="Caminho_221-3" data-name="Caminho 221" d="M1437.271-39.578c-13.333-20.966-40.1-11.077-40.667,12.066-11.143-18.4-31.453-33.23-54.584-14.241s-16.083,84.807,49.536,109.308c-30.1-17.728-50.1-46.705-49.524-75.781s24.953-37.087,42.667-3.264c-12.952.2-24.423,8.752-25.714,25.516-1.143,14.835,11.582,37.461,41.905,36.592C1428.509,49.826,1463.414,1.531,1437.271-39.578Zm-41.715,81.1c-27.784,1.23-41.393-39.2-17.667-45.889,14.185-4,17.459,19.148,21.744,18.851s-2.891-7.573-1.748-8.562,4.462,4.853,11.129,2.677-7.129-4.26-6.176-5.545,9.65,3.568,9.824-.986c.1-2.584-9.353-5.346-8.586-7.223,1.143-2.794,8.895-5.54,6.524-10.468-.748-1.555-.5,2.947-5.667,2.754-5.286-.2-5.614-6.08-2.758-16.272,2.286-8.159,10.462-14.939,20-11.571,7.143,2.522,20.238,11.818,15.857,38.125S1420.054,40.434,1395.557,41.519Z" transform="translate(-1330 51.079)" fill="#fff"/>
      </g>
      <path id="Caminho_222-3" data-name="Caminho 222" d="M1385.446-38.476c-11.565-8.91-26.578-11.694-42.957,1.254-16.871,13.337-18.28,49.779,5.988,78.778C1310.856-10.1,1346.153-58.547,1385.446-38.476Z" transform="translate(-1330.007 46.547)" fill="#fff"/>
      <path id="Caminho_223-3" data-name="Caminho 223" d="M1825.027,310.091c-12.492,10.445-29.592,15.8-53.057,3.565,7.069,5.639,17.083,9.455,30.355,9.089,24.555-.677,54.649-36.175,45.764-72.171C1851.609,269.986,1844,294.228,1825.027,310.091Z" transform="translate(-1733.187 -221.048)" fill="#fff"/>
    </g>
    <g id="Grupo_403" data-name="Grupo 403" transform="translate(517.9 4604)" opacity="0.04">
      <g id="Grupo_312-4" data-name="Grupo 312" transform="translate(0 0)">
        <path id="Caminho_221-4" data-name="Caminho 221" d="M1437.271-39.578c-13.333-20.966-40.1-11.077-40.667,12.066-11.143-18.4-31.453-33.23-54.584-14.241s-16.083,84.807,49.536,109.308c-30.1-17.728-50.1-46.705-49.524-75.781s24.953-37.087,42.667-3.264c-12.952.2-24.423,8.752-25.714,25.516-1.143,14.835,11.582,37.461,41.905,36.592C1428.509,49.826,1463.414,1.531,1437.271-39.578Zm-41.715,81.1c-27.784,1.23-41.393-39.2-17.667-45.889,14.185-4,17.459,19.148,21.744,18.851s-2.891-7.573-1.748-8.562,4.462,4.853,11.129,2.677-7.129-4.26-6.176-5.545,9.65,3.568,9.824-.986c.1-2.584-9.353-5.346-8.586-7.223,1.143-2.794,8.895-5.54,6.524-10.468-.748-1.555-.5,2.947-5.667,2.754-5.286-.2-5.614-6.08-2.758-16.272,2.286-8.159,10.462-14.939,20-11.571,7.143,2.522,20.238,11.818,15.857,38.125S1420.054,40.434,1395.557,41.519Z" transform="translate(-1330 51.079)" fill="#fff"/>
      </g>
      <path id="Caminho_222-4" data-name="Caminho 222" d="M1385.446-38.476c-11.565-8.91-26.578-11.694-42.957,1.254-16.871,13.337-18.28,49.779,5.988,78.778C1310.856-10.1,1346.153-58.547,1385.446-38.476Z" transform="translate(-1330.007 46.547)" fill="#fff"/>
      <path id="Caminho_223-4" data-name="Caminho 223" d="M1825.027,310.091c-12.492,10.445-29.592,15.8-53.057,3.565,7.069,5.639,17.083,9.455,30.355,9.089,24.555-.677,54.649-36.175,45.764-72.171C1851.609,269.986,1844,294.228,1825.027,310.091Z" transform="translate(-1733.187 -221.048)" fill="#fff"/>
    </g>
    <g id="Grupo_421" data-name="Grupo 421" transform="translate(1029.7 4604)" opacity="0.04">
      <g id="Grupo_312-5" data-name="Grupo 312" transform="translate(0 0)">
        <path id="Caminho_221-5" data-name="Caminho 221" d="M1437.271-39.578c-13.333-20.966-40.1-11.077-40.667,12.066-11.143-18.4-31.453-33.23-54.584-14.241s-16.083,84.807,49.536,109.308c-30.1-17.728-50.1-46.705-49.524-75.781s24.953-37.087,42.667-3.264c-12.952.2-24.423,8.752-25.714,25.516-1.143,14.835,11.582,37.461,41.905,36.592C1428.509,49.826,1463.414,1.531,1437.271-39.578Zm-41.715,81.1c-27.784,1.23-41.393-39.2-17.667-45.889,14.185-4,17.459,19.148,21.744,18.851s-2.891-7.573-1.748-8.562,4.462,4.853,11.129,2.677-7.129-4.26-6.176-5.545,9.65,3.568,9.824-.986c.1-2.584-9.353-5.346-8.586-7.223,1.143-2.794,8.895-5.54,6.524-10.468-.748-1.555-.5,2.947-5.667,2.754-5.286-.2-5.614-6.08-2.758-16.272,2.286-8.159,10.462-14.939,20-11.571,7.143,2.522,20.238,11.818,15.857,38.125S1420.054,40.434,1395.557,41.519Z" transform="translate(-1330 51.079)" fill="#fff"/>
      </g>
      <path id="Caminho_222-5" data-name="Caminho 222" d="M1385.446-38.476c-11.565-8.91-26.578-11.694-42.957,1.254-16.871,13.337-18.28,49.779,5.988,78.778C1310.856-10.1,1346.153-58.547,1385.446-38.476Z" transform="translate(-1330.007 46.547)" fill="#fff"/>
      <path id="Caminho_223-5" data-name="Caminho 223" d="M1825.027,310.091c-12.492,10.445-29.592,15.8-53.057,3.565,7.069,5.639,17.083,9.455,30.355,9.089,24.555-.677,54.649-36.175,45.764-72.171C1851.609,269.986,1844,294.228,1825.027,310.091Z" transform="translate(-1733.187 -221.048)" fill="#fff"/>
    </g>
    <g id="Grupo_437" data-name="Grupo 437" transform="translate(1541.5 4604)" opacity="0.04">
      <g id="Grupo_312-6" data-name="Grupo 312" transform="translate(0 0)">
        <path id="Caminho_221-6" data-name="Caminho 221" d="M1437.271-39.578c-13.333-20.966-40.1-11.077-40.667,12.066-11.143-18.4-31.453-33.23-54.584-14.241s-16.083,84.807,49.536,109.308c-30.1-17.728-50.1-46.705-49.524-75.781s24.953-37.087,42.667-3.264c-12.952.2-24.423,8.752-25.714,25.516-1.143,14.835,11.582,37.461,41.905,36.592C1428.509,49.826,1463.414,1.531,1437.271-39.578Zm-41.715,81.1c-27.784,1.23-41.393-39.2-17.667-45.889,14.185-4,17.459,19.148,21.744,18.851s-2.891-7.573-1.748-8.562,4.462,4.853,11.129,2.677-7.129-4.26-6.176-5.545,9.65,3.568,9.824-.986c.1-2.584-9.353-5.346-8.586-7.223,1.143-2.794,8.895-5.54,6.524-10.468-.748-1.555-.5,2.947-5.667,2.754-5.286-.2-5.614-6.08-2.758-16.272,2.286-8.159,10.462-14.939,20-11.571,7.143,2.522,20.238,11.818,15.857,38.125S1420.054,40.434,1395.557,41.519Z" transform="translate(-1330 51.079)" fill="#fff"/>
      </g>
      <path id="Caminho_222-6" data-name="Caminho 222" d="M1385.446-38.476c-11.565-8.91-26.578-11.694-42.957,1.254-16.871,13.337-18.28,49.779,5.988,78.778C1310.856-10.1,1346.153-58.547,1385.446-38.476Z" transform="translate(-1330.007 46.547)" fill="#fff"/>
      <path id="Caminho_223-6" data-name="Caminho 223" d="M1825.027,310.091c-12.492,10.445-29.592,15.8-53.057,3.565,7.069,5.639,17.083,9.455,30.355,9.089,24.555-.677,54.649-36.175,45.764-72.171C1851.609,269.986,1844,294.228,1825.027,310.091Z" transform="translate(-1733.187 -221.048)" fill="#fff"/>
    </g>
    <g id="Grupo_398" data-name="Grupo 398" transform="translate(388 4604)" opacity="0.04">
      <g id="Grupo_312-7" data-name="Grupo 312" transform="translate(0 0)">
        <path id="Caminho_221-7" data-name="Caminho 221" d="M1437.271-39.578c-13.333-20.966-40.1-11.077-40.667,12.066-11.143-18.4-31.453-33.23-54.584-14.241s-16.083,84.807,49.536,109.308c-30.1-17.728-50.1-46.705-49.524-75.781s24.953-37.087,42.667-3.264c-12.952.2-24.423,8.752-25.714,25.516-1.143,14.835,11.582,37.461,41.905,36.592C1428.509,49.826,1463.414,1.531,1437.271-39.578Zm-41.715,81.1c-27.784,1.23-41.393-39.2-17.667-45.889,14.185-4,17.459,19.148,21.744,18.851s-2.891-7.573-1.748-8.562,4.462,4.853,11.129,2.677-7.129-4.26-6.176-5.545,9.65,3.568,9.824-.986c.1-2.584-9.353-5.346-8.586-7.223,1.143-2.794,8.895-5.54,6.524-10.468-.748-1.555-.5,2.947-5.667,2.754-5.286-.2-5.614-6.08-2.758-16.272,2.286-8.159,10.462-14.939,20-11.571,7.143,2.522,20.238,11.818,15.857,38.125S1420.054,40.434,1395.557,41.519Z" transform="translate(-1330 51.079)" fill="#fff"/>
      </g>
      <path id="Caminho_222-7" data-name="Caminho 222" d="M1385.446-38.476c-11.565-8.91-26.578-11.694-42.957,1.254-16.871,13.337-18.28,49.779,5.988,78.778C1310.856-10.1,1346.153-58.547,1385.446-38.476Z" transform="translate(-1330.007 46.547)" fill="#fff"/>
      <path id="Caminho_223-7" data-name="Caminho 223" d="M1825.027,310.091c-12.492,10.445-29.592,15.8-53.057,3.565,7.069,5.639,17.083,9.455,30.355,9.089,24.555-.677,54.649-36.175,45.764-72.171C1851.609,269.986,1844,294.228,1825.027,310.091Z" transform="translate(-1733.187 -221.048)" fill="#fff"/>
    </g>
    <g id="Grupo_420" data-name="Grupo 420" transform="translate(901.75 4604)" opacity="0.04">
      <g id="Grupo_312-8" data-name="Grupo 312" transform="translate(0 0)">
        <path id="Caminho_221-8" data-name="Caminho 221" d="M1437.271-39.578c-13.333-20.966-40.1-11.077-40.667,12.066-11.143-18.4-31.453-33.23-54.584-14.241s-16.083,84.807,49.536,109.308c-30.1-17.728-50.1-46.705-49.524-75.781s24.953-37.087,42.667-3.264c-12.952.2-24.423,8.752-25.714,25.516-1.143,14.835,11.582,37.461,41.905,36.592C1428.509,49.826,1463.414,1.531,1437.271-39.578Zm-41.715,81.1c-27.784,1.23-41.393-39.2-17.667-45.889,14.185-4,17.459,19.148,21.744,18.851s-2.891-7.573-1.748-8.562,4.462,4.853,11.129,2.677-7.129-4.26-6.176-5.545,9.65,3.568,9.824-.986c.1-2.584-9.353-5.346-8.586-7.223,1.143-2.794,8.895-5.54,6.524-10.468-.748-1.555-.5,2.947-5.667,2.754-5.286-.2-5.614-6.08-2.758-16.272,2.286-8.159,10.462-14.939,20-11.571,7.143,2.522,20.238,11.818,15.857,38.125S1420.054,40.434,1395.557,41.519Z" transform="translate(-1330 51.079)" fill="#fff"/>
      </g>
      <path id="Caminho_222-8" data-name="Caminho 222" d="M1385.446-38.476c-11.565-8.91-26.578-11.694-42.957,1.254-16.871,13.337-18.28,49.779,5.988,78.778C1310.856-10.1,1346.153-58.547,1385.446-38.476Z" transform="translate(-1330.007 46.547)" fill="#fff"/>
      <path id="Caminho_223-8" data-name="Caminho 223" d="M1825.027,310.091c-12.492,10.445-29.592,15.8-53.057,3.565,7.069,5.639,17.083,9.455,30.355,9.089,24.555-.677,54.649-36.175,45.764-72.171C1851.609,269.986,1844,294.228,1825.027,310.091Z" transform="translate(-1733.187 -221.048)" fill="#fff"/>
    </g>
    <g id="Grupo_436" data-name="Grupo 436" transform="translate(1415.5 4604)" opacity="0.04">
      <g id="Grupo_312-9" data-name="Grupo 312" transform="translate(0 0)">
        <path id="Caminho_221-9" data-name="Caminho 221" d="M1437.271-39.578c-13.333-20.966-40.1-11.077-40.667,12.066-11.143-18.4-31.453-33.23-54.584-14.241s-16.083,84.807,49.536,109.308c-30.1-17.728-50.1-46.705-49.524-75.781s24.953-37.087,42.667-3.264c-12.952.2-24.423,8.752-25.714,25.516-1.143,14.835,11.582,37.461,41.905,36.592C1428.509,49.826,1463.414,1.531,1437.271-39.578Zm-41.715,81.1c-27.784,1.23-41.393-39.2-17.667-45.889,14.185-4,17.459,19.148,21.744,18.851s-2.891-7.573-1.748-8.562,4.462,4.853,11.129,2.677-7.129-4.26-6.176-5.545,9.65,3.568,9.824-.986c.1-2.584-9.353-5.346-8.586-7.223,1.143-2.794,8.895-5.54,6.524-10.468-.748-1.555-.5,2.947-5.667,2.754-5.286-.2-5.614-6.08-2.758-16.272,2.286-8.159,10.462-14.939,20-11.571,7.143,2.522,20.238,11.818,15.857,38.125S1420.054,40.434,1395.557,41.519Z" transform="translate(-1330 51.079)" fill="#fff"/>
      </g>
      <path id="Caminho_222-9" data-name="Caminho 222" d="M1385.446-38.476c-11.565-8.91-26.578-11.694-42.957,1.254-16.871,13.337-18.28,49.779,5.988,78.778C1310.856-10.1,1346.153-58.547,1385.446-38.476Z" transform="translate(-1330.007 46.547)" fill="#fff"/>
      <path id="Caminho_223-9" data-name="Caminho 223" d="M1825.027,310.091c-12.492,10.445-29.592,15.8-53.057,3.565,7.069,5.639,17.083,9.455,30.355,9.089,24.555-.677,54.649-36.175,45.764-72.171C1851.609,269.986,1844,294.228,1825.027,310.091Z" transform="translate(-1733.187 -221.048)" fill="#fff"/>
    </g>
    <g id="Grupo_402" data-name="Grupo 402" transform="translate(645.85 4604)" opacity="0.04">
      <g id="Grupo_312-10" data-name="Grupo 312" transform="translate(0 0)">
        <path id="Caminho_221-10" data-name="Caminho 221" d="M1437.271-39.578c-13.333-20.966-40.1-11.077-40.667,12.066-11.143-18.4-31.453-33.23-54.584-14.241s-16.083,84.807,49.536,109.308c-30.1-17.728-50.1-46.705-49.524-75.781s24.953-37.087,42.667-3.264c-12.952.2-24.423,8.752-25.714,25.516-1.143,14.835,11.582,37.461,41.905,36.592C1428.509,49.826,1463.414,1.531,1437.271-39.578Zm-41.715,81.1c-27.784,1.23-41.393-39.2-17.667-45.889,14.185-4,17.459,19.148,21.744,18.851s-2.891-7.573-1.748-8.562,4.462,4.853,11.129,2.677-7.129-4.26-6.176-5.545,9.65,3.568,9.824-.986c.1-2.584-9.353-5.346-8.586-7.223,1.143-2.794,8.895-5.54,6.524-10.468-.748-1.555-.5,2.947-5.667,2.754-5.286-.2-5.614-6.08-2.758-16.272,2.286-8.159,10.462-14.939,20-11.571,7.143,2.522,20.238,11.818,15.857,38.125S1420.054,40.434,1395.557,41.519Z" transform="translate(-1330 51.079)" fill="#fff"/>
      </g>
      <path id="Caminho_222-10" data-name="Caminho 222" d="M1385.446-38.476c-11.565-8.91-26.578-11.694-42.957,1.254-16.871,13.337-18.28,49.779,5.988,78.778C1310.856-10.1,1346.153-58.547,1385.446-38.476Z" transform="translate(-1330.007 46.547)" fill="#fff"/>
      <path id="Caminho_223-10" data-name="Caminho 223" d="M1825.027,310.091c-12.492,10.445-29.592,15.8-53.057,3.565,7.069,5.639,17.083,9.455,30.355,9.089,24.555-.677,54.649-36.175,45.764-72.171C1851.609,269.986,1844,294.228,1825.027,310.091Z" transform="translate(-1733.187 -221.048)" fill="#fff"/>
    </g>
    <g id="Grupo_419" data-name="Grupo 419" transform="translate(1157.65 4604)" opacity="0.04">
      <g id="Grupo_312-11" data-name="Grupo 312" transform="translate(0 0)">
        <path id="Caminho_221-11" data-name="Caminho 221" d="M1437.271-39.578c-13.333-20.966-40.1-11.077-40.667,12.066-11.143-18.4-31.453-33.23-54.584-14.241s-16.083,84.807,49.536,109.308c-30.1-17.728-50.1-46.705-49.524-75.781s24.953-37.087,42.667-3.264c-12.952.2-24.423,8.752-25.714,25.516-1.143,14.835,11.582,37.461,41.905,36.592C1428.509,49.826,1463.414,1.531,1437.271-39.578Zm-41.715,81.1c-27.784,1.23-41.393-39.2-17.667-45.889,14.185-4,17.459,19.148,21.744,18.851s-2.891-7.573-1.748-8.562,4.462,4.853,11.129,2.677-7.129-4.26-6.176-5.545,9.65,3.568,9.824-.986c.1-2.584-9.353-5.346-8.586-7.223,1.143-2.794,8.895-5.54,6.524-10.468-.748-1.555-.5,2.947-5.667,2.754-5.286-.2-5.614-6.08-2.758-16.272,2.286-8.159,10.462-14.939,20-11.571,7.143,2.522,20.238,11.818,15.857,38.125S1420.054,40.434,1395.557,41.519Z" transform="translate(-1330 51.079)" fill="#fff"/>
      </g>
      <path id="Caminho_222-11" data-name="Caminho 222" d="M1385.446-38.476c-11.565-8.91-26.578-11.694-42.957,1.254-16.871,13.337-18.28,49.779,5.988,78.778C1310.856-10.1,1346.153-58.547,1385.446-38.476Z" transform="translate(-1330.007 46.547)" fill="#fff"/>
      <path id="Caminho_223-11" data-name="Caminho 223" d="M1825.027,310.091c-12.492,10.445-29.592,15.8-53.057,3.565,7.069,5.639,17.083,9.455,30.355,9.089,24.555-.677,54.649-36.175,45.764-72.171C1851.609,269.986,1844,294.228,1825.027,310.091Z" transform="translate(-1733.187 -221.048)" fill="#fff"/>
    </g>
    <g id="Grupo_392" data-name="Grupo 392" transform="translate(262 4730.122)" opacity="0.04">
      <g id="Grupo_312-12" data-name="Grupo 312" transform="translate(0 0)">
        <path id="Caminho_221-12" data-name="Caminho 221" d="M1437.271-39.578c-13.333-20.966-40.1-11.077-40.667,12.066-11.143-18.4-31.453-33.23-54.584-14.241s-16.083,84.807,49.536,109.308c-30.1-17.728-50.1-46.705-49.524-75.781s24.953-37.087,42.667-3.264c-12.952.2-24.423,8.752-25.714,25.516-1.143,14.835,11.582,37.461,41.905,36.592C1428.509,49.826,1463.414,1.531,1437.271-39.578Zm-41.715,81.1c-27.784,1.23-41.393-39.2-17.667-45.889,14.185-4,17.459,19.148,21.744,18.851s-2.891-7.573-1.748-8.562,4.462,4.853,11.129,2.677-7.129-4.26-6.176-5.545,9.65,3.568,9.824-.986c.1-2.584-9.353-5.346-8.586-7.223,1.143-2.794,8.895-5.54,6.524-10.468-.748-1.555-.5,2.947-5.667,2.754-5.286-.2-5.614-6.08-2.758-16.272,2.286-8.159,10.462-14.939,20-11.571,7.143,2.522,20.238,11.818,15.857,38.125S1420.054,40.434,1395.557,41.519Z" transform="translate(-1330 51.079)" fill="#fff"/>
      </g>
      <path id="Caminho_222-12" data-name="Caminho 222" d="M1385.446-38.476c-11.565-8.91-26.578-11.694-42.957,1.254-16.871,13.337-18.28,49.779,5.988,78.778C1310.856-10.1,1346.153-58.547,1385.446-38.476Z" transform="translate(-1330.007 46.547)" fill="#fff"/>
      <path id="Caminho_223-12" data-name="Caminho 223" d="M1825.027,310.091c-12.492,10.445-29.592,15.8-53.057,3.565,7.069,5.639,17.083,9.455,30.355,9.089,24.555-.677,54.649-36.175,45.764-72.171C1851.609,269.986,1844,294.228,1825.027,310.091Z" transform="translate(-1733.187 -221.048)" fill="#fff"/>
    </g>
    <g id="Grupo_418" data-name="Grupo 418" transform="translate(773.8 4730.122)" opacity="0.04">
      <g id="Grupo_312-13" data-name="Grupo 312" transform="translate(0 0)">
        <path id="Caminho_221-13" data-name="Caminho 221" d="M1437.271-39.578c-13.333-20.966-40.1-11.077-40.667,12.066-11.143-18.4-31.453-33.23-54.584-14.241s-16.083,84.807,49.536,109.308c-30.1-17.728-50.1-46.705-49.524-75.781s24.953-37.087,42.667-3.264c-12.952.2-24.423,8.752-25.714,25.516-1.143,14.835,11.582,37.461,41.905,36.592C1428.509,49.826,1463.414,1.531,1437.271-39.578Zm-41.715,81.1c-27.784,1.23-41.393-39.2-17.667-45.889,14.185-4,17.459,19.148,21.744,18.851s-2.891-7.573-1.748-8.562,4.462,4.853,11.129,2.677-7.129-4.26-6.176-5.545,9.65,3.568,9.824-.986c.1-2.584-9.353-5.346-8.586-7.223,1.143-2.794,8.895-5.54,6.524-10.468-.748-1.555-.5,2.947-5.667,2.754-5.286-.2-5.614-6.08-2.758-16.272,2.286-8.159,10.462-14.939,20-11.571,7.143,2.522,20.238,11.818,15.857,38.125S1420.054,40.434,1395.557,41.519Z" transform="translate(-1330 51.079)" fill="#fff"/>
      </g>
      <path id="Caminho_222-13" data-name="Caminho 222" d="M1385.446-38.476c-11.565-8.91-26.578-11.694-42.957,1.254-16.871,13.337-18.28,49.779,5.988,78.778C1310.856-10.1,1346.153-58.547,1385.446-38.476Z" transform="translate(-1330.007 46.547)" fill="#fff"/>
      <path id="Caminho_223-13" data-name="Caminho 223" d="M1825.027,310.091c-12.492,10.445-29.592,15.8-53.057,3.565,7.069,5.639,17.083,9.455,30.355,9.089,24.555-.677,54.649-36.175,45.764-72.171C1851.609,269.986,1844,294.228,1825.027,310.091Z" transform="translate(-1733.187 -221.048)" fill="#fff"/>
    </g>
    <g id="Grupo_434" data-name="Grupo 434" transform="translate(1285.6 4730.122)" opacity="0.04">
      <g id="Grupo_312-14" data-name="Grupo 312" transform="translate(0 0)">
        <path id="Caminho_221-14" data-name="Caminho 221" d="M1437.271-39.578c-13.333-20.966-40.1-11.077-40.667,12.066-11.143-18.4-31.453-33.23-54.584-14.241s-16.083,84.807,49.536,109.308c-30.1-17.728-50.1-46.705-49.524-75.781s24.953-37.087,42.667-3.264c-12.952.2-24.423,8.752-25.714,25.516-1.143,14.835,11.582,37.461,41.905,36.592C1428.509,49.826,1463.414,1.531,1437.271-39.578Zm-41.715,81.1c-27.784,1.23-41.393-39.2-17.667-45.889,14.185-4,17.459,19.148,21.744,18.851s-2.891-7.573-1.748-8.562,4.462,4.853,11.129,2.677-7.129-4.26-6.176-5.545,9.65,3.568,9.824-.986c.1-2.584-9.353-5.346-8.586-7.223,1.143-2.794,8.895-5.54,6.524-10.468-.748-1.555-.5,2.947-5.667,2.754-5.286-.2-5.614-6.08-2.758-16.272,2.286-8.159,10.462-14.939,20-11.571,7.143,2.522,20.238,11.818,15.857,38.125S1420.054,40.434,1395.557,41.519Z" transform="translate(-1330 51.079)" fill="#fff"/>
      </g>
      <path id="Caminho_222-14" data-name="Caminho 222" d="M1385.446-38.476c-11.565-8.91-26.578-11.694-42.957,1.254-16.871,13.337-18.28,49.779,5.988,78.778C1310.856-10.1,1346.153-58.547,1385.446-38.476Z" transform="translate(-1330.007 46.547)" fill="#fff"/>
      <path id="Caminho_223-14" data-name="Caminho 223" d="M1825.027,310.091c-12.492,10.445-29.592,15.8-53.057,3.565,7.069,5.639,17.083,9.455,30.355,9.089,24.555-.677,54.649-36.175,45.764-72.171C1851.609,269.986,1844,294.228,1825.027,310.091Z" transform="translate(-1733.187 -221.048)" fill="#fff"/>
    </g>
    <g id="Grupo_404" data-name="Grupo 404" transform="translate(517.9 4730.122)" opacity="0.04">
      <g id="Grupo_312-15" data-name="Grupo 312" transform="translate(0 0)">
        <path id="Caminho_221-15" data-name="Caminho 221" d="M1437.271-39.578c-13.333-20.966-40.1-11.077-40.667,12.066-11.143-18.4-31.453-33.23-54.584-14.241s-16.083,84.807,49.536,109.308c-30.1-17.728-50.1-46.705-49.524-75.781s24.953-37.087,42.667-3.264c-12.952.2-24.423,8.752-25.714,25.516-1.143,14.835,11.582,37.461,41.905,36.592C1428.509,49.826,1463.414,1.531,1437.271-39.578Zm-41.715,81.1c-27.784,1.23-41.393-39.2-17.667-45.889,14.185-4,17.459,19.148,21.744,18.851s-2.891-7.573-1.748-8.562,4.462,4.853,11.129,2.677-7.129-4.26-6.176-5.545,9.65,3.568,9.824-.986c.1-2.584-9.353-5.346-8.586-7.223,1.143-2.794,8.895-5.54,6.524-10.468-.748-1.555-.5,2.947-5.667,2.754-5.286-.2-5.614-6.08-2.758-16.272,2.286-8.159,10.462-14.939,20-11.571,7.143,2.522,20.238,11.818,15.857,38.125S1420.054,40.434,1395.557,41.519Z" transform="translate(-1330 51.079)" fill="#fff"/>
      </g>
      <path id="Caminho_222-15" data-name="Caminho 222" d="M1385.446-38.476c-11.565-8.91-26.578-11.694-42.957,1.254-16.871,13.337-18.28,49.779,5.988,78.778C1310.856-10.1,1346.153-58.547,1385.446-38.476Z" transform="translate(-1330.007 46.547)" fill="#fff"/>
      <path id="Caminho_223-15" data-name="Caminho 223" d="M1825.027,310.091c-12.492,10.445-29.592,15.8-53.057,3.565,7.069,5.639,17.083,9.455,30.355,9.089,24.555-.677,54.649-36.175,45.764-72.171C1851.609,269.986,1844,294.228,1825.027,310.091Z" transform="translate(-1733.187 -221.048)" fill="#fff"/>
    </g>
    <g id="Grupo_417" data-name="Grupo 417" transform="translate(1029.7 4730.122)" opacity="0.04">
      <g id="Grupo_312-16" data-name="Grupo 312" transform="translate(0 0)">
        <path id="Caminho_221-16" data-name="Caminho 221" d="M1437.271-39.578c-13.333-20.966-40.1-11.077-40.667,12.066-11.143-18.4-31.453-33.23-54.584-14.241s-16.083,84.807,49.536,109.308c-30.1-17.728-50.1-46.705-49.524-75.781s24.953-37.087,42.667-3.264c-12.952.2-24.423,8.752-25.714,25.516-1.143,14.835,11.582,37.461,41.905,36.592C1428.509,49.826,1463.414,1.531,1437.271-39.578Zm-41.715,81.1c-27.784,1.23-41.393-39.2-17.667-45.889,14.185-4,17.459,19.148,21.744,18.851s-2.891-7.573-1.748-8.562,4.462,4.853,11.129,2.677-7.129-4.26-6.176-5.545,9.65,3.568,9.824-.986c.1-2.584-9.353-5.346-8.586-7.223,1.143-2.794,8.895-5.54,6.524-10.468-.748-1.555-.5,2.947-5.667,2.754-5.286-.2-5.614-6.08-2.758-16.272,2.286-8.159,10.462-14.939,20-11.571,7.143,2.522,20.238,11.818,15.857,38.125S1420.054,40.434,1395.557,41.519Z" transform="translate(-1330 51.079)" fill="#fff"/>
      </g>
      <path id="Caminho_222-16" data-name="Caminho 222" d="M1385.446-38.476c-11.565-8.91-26.578-11.694-42.957,1.254-16.871,13.337-18.28,49.779,5.988,78.778C1310.856-10.1,1346.153-58.547,1385.446-38.476Z" transform="translate(-1330.007 46.547)" fill="#fff"/>
      <path id="Caminho_223-16" data-name="Caminho 223" d="M1825.027,310.091c-12.492,10.445-29.592,15.8-53.057,3.565,7.069,5.639,17.083,9.455,30.355,9.089,24.555-.677,54.649-36.175,45.764-72.171C1851.609,269.986,1844,294.228,1825.027,310.091Z" transform="translate(-1733.187 -221.048)" fill="#fff"/>
    </g>
    <g id="Grupo_433" data-name="Grupo 433" transform="translate(1541.5 4730.122)" opacity="0.04">
      <g id="Grupo_312-17" data-name="Grupo 312" transform="translate(0 0)">
        <path id="Caminho_221-17" data-name="Caminho 221" d="M1437.271-39.578c-13.333-20.966-40.1-11.077-40.667,12.066-11.143-18.4-31.453-33.23-54.584-14.241s-16.083,84.807,49.536,109.308c-30.1-17.728-50.1-46.705-49.524-75.781s24.953-37.087,42.667-3.264c-12.952.2-24.423,8.752-25.714,25.516-1.143,14.835,11.582,37.461,41.905,36.592C1428.509,49.826,1463.414,1.531,1437.271-39.578Zm-41.715,81.1c-27.784,1.23-41.393-39.2-17.667-45.889,14.185-4,17.459,19.148,21.744,18.851s-2.891-7.573-1.748-8.562,4.462,4.853,11.129,2.677-7.129-4.26-6.176-5.545,9.65,3.568,9.824-.986c.1-2.584-9.353-5.346-8.586-7.223,1.143-2.794,8.895-5.54,6.524-10.468-.748-1.555-.5,2.947-5.667,2.754-5.286-.2-5.614-6.08-2.758-16.272,2.286-8.159,10.462-14.939,20-11.571,7.143,2.522,20.238,11.818,15.857,38.125S1420.054,40.434,1395.557,41.519Z" transform="translate(-1330 51.079)" fill="#fff"/>
      </g>
      <path id="Caminho_222-17" data-name="Caminho 222" d="M1385.446-38.476c-11.565-8.91-26.578-11.694-42.957,1.254-16.871,13.337-18.28,49.779,5.988,78.778C1310.856-10.1,1346.153-58.547,1385.446-38.476Z" transform="translate(-1330.007 46.547)" fill="#fff"/>
      <path id="Caminho_223-17" data-name="Caminho 223" d="M1825.027,310.091c-12.492,10.445-29.592,15.8-53.057,3.565,7.069,5.639,17.083,9.455,30.355,9.089,24.555-.677,54.649-36.175,45.764-72.171C1851.609,269.986,1844,294.228,1825.027,310.091Z" transform="translate(-1733.187 -221.048)" fill="#fff"/>
    </g>
    <g id="Grupo_397" data-name="Grupo 397" transform="translate(388 4730.122)" opacity="0.04">
      <g id="Grupo_312-18" data-name="Grupo 312" transform="translate(0 0)">
        <path id="Caminho_221-18" data-name="Caminho 221" d="M1437.271-39.578c-13.333-20.966-40.1-11.077-40.667,12.066-11.143-18.4-31.453-33.23-54.584-14.241s-16.083,84.807,49.536,109.308c-30.1-17.728-50.1-46.705-49.524-75.781s24.953-37.087,42.667-3.264c-12.952.2-24.423,8.752-25.714,25.516-1.143,14.835,11.582,37.461,41.905,36.592C1428.509,49.826,1463.414,1.531,1437.271-39.578Zm-41.715,81.1c-27.784,1.23-41.393-39.2-17.667-45.889,14.185-4,17.459,19.148,21.744,18.851s-2.891-7.573-1.748-8.562,4.462,4.853,11.129,2.677-7.129-4.26-6.176-5.545,9.65,3.568,9.824-.986c.1-2.584-9.353-5.346-8.586-7.223,1.143-2.794,8.895-5.54,6.524-10.468-.748-1.555-.5,2.947-5.667,2.754-5.286-.2-5.614-6.08-2.758-16.272,2.286-8.159,10.462-14.939,20-11.571,7.143,2.522,20.238,11.818,15.857,38.125S1420.054,40.434,1395.557,41.519Z" transform="translate(-1330 51.079)" fill="#fff"/>
      </g>
      <path id="Caminho_222-18" data-name="Caminho 222" d="M1385.446-38.476c-11.565-8.91-26.578-11.694-42.957,1.254-16.871,13.337-18.28,49.779,5.988,78.778C1310.856-10.1,1346.153-58.547,1385.446-38.476Z" transform="translate(-1330.007 46.547)" fill="#fff"/>
      <path id="Caminho_223-18" data-name="Caminho 223" d="M1825.027,310.091c-12.492,10.445-29.592,15.8-53.057,3.565,7.069,5.639,17.083,9.455,30.355,9.089,24.555-.677,54.649-36.175,45.764-72.171C1851.609,269.986,1844,294.228,1825.027,310.091Z" transform="translate(-1733.187 -221.048)" fill="#fff"/>
    </g>
    <g id="Grupo_416" data-name="Grupo 416" transform="translate(901.75 4730.122)" opacity="0.04">
      <g id="Grupo_312-19" data-name="Grupo 312" transform="translate(0 0)">
        <path id="Caminho_221-19" data-name="Caminho 221" d="M1437.271-39.578c-13.333-20.966-40.1-11.077-40.667,12.066-11.143-18.4-31.453-33.23-54.584-14.241s-16.083,84.807,49.536,109.308c-30.1-17.728-50.1-46.705-49.524-75.781s24.953-37.087,42.667-3.264c-12.952.2-24.423,8.752-25.714,25.516-1.143,14.835,11.582,37.461,41.905,36.592C1428.509,49.826,1463.414,1.531,1437.271-39.578Zm-41.715,81.1c-27.784,1.23-41.393-39.2-17.667-45.889,14.185-4,17.459,19.148,21.744,18.851s-2.891-7.573-1.748-8.562,4.462,4.853,11.129,2.677-7.129-4.26-6.176-5.545,9.65,3.568,9.824-.986c.1-2.584-9.353-5.346-8.586-7.223,1.143-2.794,8.895-5.54,6.524-10.468-.748-1.555-.5,2.947-5.667,2.754-5.286-.2-5.614-6.08-2.758-16.272,2.286-8.159,10.462-14.939,20-11.571,7.143,2.522,20.238,11.818,15.857,38.125S1420.054,40.434,1395.557,41.519Z" transform="translate(-1330 51.079)" fill="#fff"/>
      </g>
      <path id="Caminho_222-19" data-name="Caminho 222" d="M1385.446-38.476c-11.565-8.91-26.578-11.694-42.957,1.254-16.871,13.337-18.28,49.779,5.988,78.778C1310.856-10.1,1346.153-58.547,1385.446-38.476Z" transform="translate(-1330.007 46.547)" fill="#fff"/>
      <path id="Caminho_223-19" data-name="Caminho 223" d="M1825.027,310.091c-12.492,10.445-29.592,15.8-53.057,3.565,7.069,5.639,17.083,9.455,30.355,9.089,24.555-.677,54.649-36.175,45.764-72.171C1851.609,269.986,1844,294.228,1825.027,310.091Z" transform="translate(-1733.187 -221.048)" fill="#fff"/>
    </g>
    <g id="Grupo_432" data-name="Grupo 432" transform="translate(1415.5 4730.122)" opacity="0.04">
      <g id="Grupo_312-20" data-name="Grupo 312" transform="translate(0 0)">
        <path id="Caminho_221-20" data-name="Caminho 221" d="M1437.271-39.578c-13.333-20.966-40.1-11.077-40.667,12.066-11.143-18.4-31.453-33.23-54.584-14.241s-16.083,84.807,49.536,109.308c-30.1-17.728-50.1-46.705-49.524-75.781s24.953-37.087,42.667-3.264c-12.952.2-24.423,8.752-25.714,25.516-1.143,14.835,11.582,37.461,41.905,36.592C1428.509,49.826,1463.414,1.531,1437.271-39.578Zm-41.715,81.1c-27.784,1.23-41.393-39.2-17.667-45.889,14.185-4,17.459,19.148,21.744,18.851s-2.891-7.573-1.748-8.562,4.462,4.853,11.129,2.677-7.129-4.26-6.176-5.545,9.65,3.568,9.824-.986c.1-2.584-9.353-5.346-8.586-7.223,1.143-2.794,8.895-5.54,6.524-10.468-.748-1.555-.5,2.947-5.667,2.754-5.286-.2-5.614-6.08-2.758-16.272,2.286-8.159,10.462-14.939,20-11.571,7.143,2.522,20.238,11.818,15.857,38.125S1420.054,40.434,1395.557,41.519Z" transform="translate(-1330 51.079)" fill="#fff"/>
      </g>
      <path id="Caminho_222-20" data-name="Caminho 222" d="M1385.446-38.476c-11.565-8.91-26.578-11.694-42.957,1.254-16.871,13.337-18.28,49.779,5.988,78.778C1310.856-10.1,1346.153-58.547,1385.446-38.476Z" transform="translate(-1330.007 46.547)" fill="#fff"/>
      <path id="Caminho_223-20" data-name="Caminho 223" d="M1825.027,310.091c-12.492,10.445-29.592,15.8-53.057,3.565,7.069,5.639,17.083,9.455,30.355,9.089,24.555-.677,54.649-36.175,45.764-72.171C1851.609,269.986,1844,294.228,1825.027,310.091Z" transform="translate(-1733.187 -221.048)" fill="#fff"/>
    </g>
    <g id="Grupo_401" data-name="Grupo 401" transform="translate(645.85 4730.122)" opacity="0.04">
      <g id="Grupo_312-21" data-name="Grupo 312" transform="translate(0 0)">
        <path id="Caminho_221-21" data-name="Caminho 221" d="M1437.271-39.578c-13.333-20.966-40.1-11.077-40.667,12.066-11.143-18.4-31.453-33.23-54.584-14.241s-16.083,84.807,49.536,109.308c-30.1-17.728-50.1-46.705-49.524-75.781s24.953-37.087,42.667-3.264c-12.952.2-24.423,8.752-25.714,25.516-1.143,14.835,11.582,37.461,41.905,36.592C1428.509,49.826,1463.414,1.531,1437.271-39.578Zm-41.715,81.1c-27.784,1.23-41.393-39.2-17.667-45.889,14.185-4,17.459,19.148,21.744,18.851s-2.891-7.573-1.748-8.562,4.462,4.853,11.129,2.677-7.129-4.26-6.176-5.545,9.65,3.568,9.824-.986c.1-2.584-9.353-5.346-8.586-7.223,1.143-2.794,8.895-5.54,6.524-10.468-.748-1.555-.5,2.947-5.667,2.754-5.286-.2-5.614-6.08-2.758-16.272,2.286-8.159,10.462-14.939,20-11.571,7.143,2.522,20.238,11.818,15.857,38.125S1420.054,40.434,1395.557,41.519Z" transform="translate(-1330 51.079)" fill="#fff"/>
      </g>
      <path id="Caminho_222-21" data-name="Caminho 222" d="M1385.446-38.476c-11.565-8.91-26.578-11.694-42.957,1.254-16.871,13.337-18.28,49.779,5.988,78.778C1310.856-10.1,1346.153-58.547,1385.446-38.476Z" transform="translate(-1330.007 46.547)" fill="#fff"/>
      <path id="Caminho_223-21" data-name="Caminho 223" d="M1825.027,310.091c-12.492,10.445-29.592,15.8-53.057,3.565,7.069,5.639,17.083,9.455,30.355,9.089,24.555-.677,54.649-36.175,45.764-72.171C1851.609,269.986,1844,294.228,1825.027,310.091Z" transform="translate(-1733.187 -221.048)" fill="#fff"/>
    </g>
    <g id="Grupo_415" data-name="Grupo 415" transform="translate(1157.65 4730.122)" opacity="0.04">
      <g id="Grupo_312-22" data-name="Grupo 312" transform="translate(0 0)">
        <path id="Caminho_221-22" data-name="Caminho 221" d="M1437.271-39.578c-13.333-20.966-40.1-11.077-40.667,12.066-11.143-18.4-31.453-33.23-54.584-14.241s-16.083,84.807,49.536,109.308c-30.1-17.728-50.1-46.705-49.524-75.781s24.953-37.087,42.667-3.264c-12.952.2-24.423,8.752-25.714,25.516-1.143,14.835,11.582,37.461,41.905,36.592C1428.509,49.826,1463.414,1.531,1437.271-39.578Zm-41.715,81.1c-27.784,1.23-41.393-39.2-17.667-45.889,14.185-4,17.459,19.148,21.744,18.851s-2.891-7.573-1.748-8.562,4.462,4.853,11.129,2.677-7.129-4.26-6.176-5.545,9.65,3.568,9.824-.986c.1-2.584-9.353-5.346-8.586-7.223,1.143-2.794,8.895-5.54,6.524-10.468-.748-1.555-.5,2.947-5.667,2.754-5.286-.2-5.614-6.08-2.758-16.272,2.286-8.159,10.462-14.939,20-11.571,7.143,2.522,20.238,11.818,15.857,38.125S1420.054,40.434,1395.557,41.519Z" transform="translate(-1330 51.079)" fill="#fff"/>
      </g>
      <path id="Caminho_222-22" data-name="Caminho 222" d="M1385.446-38.476c-11.565-8.91-26.578-11.694-42.957,1.254-16.871,13.337-18.28,49.779,5.988,78.778C1310.856-10.1,1346.153-58.547,1385.446-38.476Z" transform="translate(-1330.007 46.547)" fill="#fff"/>
      <path id="Caminho_223-22" data-name="Caminho 223" d="M1825.027,310.091c-12.492,10.445-29.592,15.8-53.057,3.565,7.069,5.639,17.083,9.455,30.355,9.089,24.555-.677,54.649-36.175,45.764-72.171C1851.609,269.986,1844,294.228,1825.027,310.091Z" transform="translate(-1733.187 -221.048)" fill="#fff"/>
    </g>
    <g id="Grupo_393" data-name="Grupo 393" transform="translate(262 4856.244)" opacity="0.04">
      <g id="Grupo_312-23" data-name="Grupo 312" transform="translate(0 0)">
        <path id="Caminho_221-23" data-name="Caminho 221" d="M1437.271-39.578c-13.333-20.966-40.1-11.077-40.667,12.066-11.143-18.4-31.453-33.23-54.584-14.241s-16.083,84.807,49.536,109.308c-30.1-17.728-50.1-46.705-49.524-75.781s24.953-37.087,42.667-3.264c-12.952.2-24.423,8.752-25.714,25.516-1.143,14.835,11.582,37.461,41.905,36.592C1428.509,49.826,1463.414,1.531,1437.271-39.578Zm-41.715,81.1c-27.784,1.23-41.393-39.2-17.667-45.889,14.185-4,17.459,19.148,21.744,18.851s-2.891-7.573-1.748-8.562,4.462,4.853,11.129,2.677-7.129-4.26-6.176-5.545,9.65,3.568,9.824-.986c.1-2.584-9.353-5.346-8.586-7.223,1.143-2.794,8.895-5.54,6.524-10.468-.748-1.555-.5,2.947-5.667,2.754-5.286-.2-5.614-6.08-2.758-16.272,2.286-8.159,10.462-14.939,20-11.571,7.143,2.522,20.238,11.818,15.857,38.125S1420.054,40.434,1395.557,41.519Z" transform="translate(-1330 51.079)" fill="#fff"/>
      </g>
      <path id="Caminho_222-23" data-name="Caminho 222" d="M1385.446-38.476c-11.565-8.91-26.578-11.694-42.957,1.254-16.871,13.337-18.28,49.779,5.988,78.778C1310.856-10.1,1346.153-58.547,1385.446-38.476Z" transform="translate(-1330.007 46.547)" fill="#fff"/>
      <path id="Caminho_223-23" data-name="Caminho 223" d="M1825.027,310.091c-12.492,10.445-29.592,15.8-53.057,3.565,7.069,5.639,17.083,9.455,30.355,9.089,24.555-.677,54.649-36.175,45.764-72.171C1851.609,269.986,1844,294.228,1825.027,310.091Z" transform="translate(-1733.187 -221.048)" fill="#fff"/>
    </g>
    <g id="Grupo_414" data-name="Grupo 414" transform="translate(773.8 4856.244)" opacity="0.04">
      <g id="Grupo_312-24" data-name="Grupo 312" transform="translate(0 0)">
        <path id="Caminho_221-24" data-name="Caminho 221" d="M1437.271-39.578c-13.333-20.966-40.1-11.077-40.667,12.066-11.143-18.4-31.453-33.23-54.584-14.241s-16.083,84.807,49.536,109.308c-30.1-17.728-50.1-46.705-49.524-75.781s24.953-37.087,42.667-3.264c-12.952.2-24.423,8.752-25.714,25.516-1.143,14.835,11.582,37.461,41.905,36.592C1428.509,49.826,1463.414,1.531,1437.271-39.578Zm-41.715,81.1c-27.784,1.23-41.393-39.2-17.667-45.889,14.185-4,17.459,19.148,21.744,18.851s-2.891-7.573-1.748-8.562,4.462,4.853,11.129,2.677-7.129-4.26-6.176-5.545,9.65,3.568,9.824-.986c.1-2.584-9.353-5.346-8.586-7.223,1.143-2.794,8.895-5.54,6.524-10.468-.748-1.555-.5,2.947-5.667,2.754-5.286-.2-5.614-6.08-2.758-16.272,2.286-8.159,10.462-14.939,20-11.571,7.143,2.522,20.238,11.818,15.857,38.125S1420.054,40.434,1395.557,41.519Z" transform="translate(-1330 51.079)" fill="#fff"/>
      </g>
      <path id="Caminho_222-24" data-name="Caminho 222" d="M1385.446-38.476c-11.565-8.91-26.578-11.694-42.957,1.254-16.871,13.337-18.28,49.779,5.988,78.778C1310.856-10.1,1346.153-58.547,1385.446-38.476Z" transform="translate(-1330.007 46.547)" fill="#fff"/>
      <path id="Caminho_223-24" data-name="Caminho 223" d="M1825.027,310.091c-12.492,10.445-29.592,15.8-53.057,3.565,7.069,5.639,17.083,9.455,30.355,9.089,24.555-.677,54.649-36.175,45.764-72.171C1851.609,269.986,1844,294.228,1825.027,310.091Z" transform="translate(-1733.187 -221.048)" fill="#fff"/>
    </g>
    <g id="Grupo_430" data-name="Grupo 430" transform="translate(1285.6 4856.244)" opacity="0.04">
      <g id="Grupo_312-25" data-name="Grupo 312" transform="translate(0 0)">
        <path id="Caminho_221-25" data-name="Caminho 221" d="M1437.271-39.578c-13.333-20.966-40.1-11.077-40.667,12.066-11.143-18.4-31.453-33.23-54.584-14.241s-16.083,84.807,49.536,109.308c-30.1-17.728-50.1-46.705-49.524-75.781s24.953-37.087,42.667-3.264c-12.952.2-24.423,8.752-25.714,25.516-1.143,14.835,11.582,37.461,41.905,36.592C1428.509,49.826,1463.414,1.531,1437.271-39.578Zm-41.715,81.1c-27.784,1.23-41.393-39.2-17.667-45.889,14.185-4,17.459,19.148,21.744,18.851s-2.891-7.573-1.748-8.562,4.462,4.853,11.129,2.677-7.129-4.26-6.176-5.545,9.65,3.568,9.824-.986c.1-2.584-9.353-5.346-8.586-7.223,1.143-2.794,8.895-5.54,6.524-10.468-.748-1.555-.5,2.947-5.667,2.754-5.286-.2-5.614-6.08-2.758-16.272,2.286-8.159,10.462-14.939,20-11.571,7.143,2.522,20.238,11.818,15.857,38.125S1420.054,40.434,1395.557,41.519Z" transform="translate(-1330 51.079)" fill="#fff"/>
      </g>
      <path id="Caminho_222-25" data-name="Caminho 222" d="M1385.446-38.476c-11.565-8.91-26.578-11.694-42.957,1.254-16.871,13.337-18.28,49.779,5.988,78.778C1310.856-10.1,1346.153-58.547,1385.446-38.476Z" transform="translate(-1330.007 46.547)" fill="#fff"/>
      <path id="Caminho_223-25" data-name="Caminho 223" d="M1825.027,310.091c-12.492,10.445-29.592,15.8-53.057,3.565,7.069,5.639,17.083,9.455,30.355,9.089,24.555-.677,54.649-36.175,45.764-72.171C1851.609,269.986,1844,294.228,1825.027,310.091Z" transform="translate(-1733.187 -221.048)" fill="#fff"/>
    </g>
    <g id="Grupo_405" data-name="Grupo 405" transform="translate(517.9 4856.244)" opacity="0.04">
      <g id="Grupo_312-26" data-name="Grupo 312" transform="translate(0 0)">
        <path id="Caminho_221-26" data-name="Caminho 221" d="M1437.271-39.578c-13.333-20.966-40.1-11.077-40.667,12.066-11.143-18.4-31.453-33.23-54.584-14.241s-16.083,84.807,49.536,109.308c-30.1-17.728-50.1-46.705-49.524-75.781s24.953-37.087,42.667-3.264c-12.952.2-24.423,8.752-25.714,25.516-1.143,14.835,11.582,37.461,41.905,36.592C1428.509,49.826,1463.414,1.531,1437.271-39.578Zm-41.715,81.1c-27.784,1.23-41.393-39.2-17.667-45.889,14.185-4,17.459,19.148,21.744,18.851s-2.891-7.573-1.748-8.562,4.462,4.853,11.129,2.677-7.129-4.26-6.176-5.545,9.65,3.568,9.824-.986c.1-2.584-9.353-5.346-8.586-7.223,1.143-2.794,8.895-5.54,6.524-10.468-.748-1.555-.5,2.947-5.667,2.754-5.286-.2-5.614-6.08-2.758-16.272,2.286-8.159,10.462-14.939,20-11.571,7.143,2.522,20.238,11.818,15.857,38.125S1420.054,40.434,1395.557,41.519Z" transform="translate(-1330 51.079)" fill="#fff"/>
      </g>
      <path id="Caminho_222-26" data-name="Caminho 222" d="M1385.446-38.476c-11.565-8.91-26.578-11.694-42.957,1.254-16.871,13.337-18.28,49.779,5.988,78.778C1310.856-10.1,1346.153-58.547,1385.446-38.476Z" transform="translate(-1330.007 46.547)" fill="#fff"/>
      <path id="Caminho_223-26" data-name="Caminho 223" d="M1825.027,310.091c-12.492,10.445-29.592,15.8-53.057,3.565,7.069,5.639,17.083,9.455,30.355,9.089,24.555-.677,54.649-36.175,45.764-72.171C1851.609,269.986,1844,294.228,1825.027,310.091Z" transform="translate(-1733.187 -221.048)" fill="#fff"/>
    </g>
    <g id="Grupo_413" data-name="Grupo 413" transform="translate(1029.7 4856.244)" opacity="0.04">
      <g id="Grupo_312-27" data-name="Grupo 312" transform="translate(0 0)">
        <path id="Caminho_221-27" data-name="Caminho 221" d="M1437.271-39.578c-13.333-20.966-40.1-11.077-40.667,12.066-11.143-18.4-31.453-33.23-54.584-14.241s-16.083,84.807,49.536,109.308c-30.1-17.728-50.1-46.705-49.524-75.781s24.953-37.087,42.667-3.264c-12.952.2-24.423,8.752-25.714,25.516-1.143,14.835,11.582,37.461,41.905,36.592C1428.509,49.826,1463.414,1.531,1437.271-39.578Zm-41.715,81.1c-27.784,1.23-41.393-39.2-17.667-45.889,14.185-4,17.459,19.148,21.744,18.851s-2.891-7.573-1.748-8.562,4.462,4.853,11.129,2.677-7.129-4.26-6.176-5.545,9.65,3.568,9.824-.986c.1-2.584-9.353-5.346-8.586-7.223,1.143-2.794,8.895-5.54,6.524-10.468-.748-1.555-.5,2.947-5.667,2.754-5.286-.2-5.614-6.08-2.758-16.272,2.286-8.159,10.462-14.939,20-11.571,7.143,2.522,20.238,11.818,15.857,38.125S1420.054,40.434,1395.557,41.519Z" transform="translate(-1330 51.079)" fill="#fff"/>
      </g>
      <path id="Caminho_222-27" data-name="Caminho 222" d="M1385.446-38.476c-11.565-8.91-26.578-11.694-42.957,1.254-16.871,13.337-18.28,49.779,5.988,78.778C1310.856-10.1,1346.153-58.547,1385.446-38.476Z" transform="translate(-1330.007 46.547)" fill="#fff"/>
      <path id="Caminho_223-27" data-name="Caminho 223" d="M1825.027,310.091c-12.492,10.445-29.592,15.8-53.057,3.565,7.069,5.639,17.083,9.455,30.355,9.089,24.555-.677,54.649-36.175,45.764-72.171C1851.609,269.986,1844,294.228,1825.027,310.091Z" transform="translate(-1733.187 -221.048)" fill="#fff"/>
    </g>
    <g id="Grupo_429" data-name="Grupo 429" transform="translate(1541.5 4856.244)" opacity="0.04">
      <g id="Grupo_312-28" data-name="Grupo 312" transform="translate(0 0)">
        <path id="Caminho_221-28" data-name="Caminho 221" d="M1437.271-39.578c-13.333-20.966-40.1-11.077-40.667,12.066-11.143-18.4-31.453-33.23-54.584-14.241s-16.083,84.807,49.536,109.308c-30.1-17.728-50.1-46.705-49.524-75.781s24.953-37.087,42.667-3.264c-12.952.2-24.423,8.752-25.714,25.516-1.143,14.835,11.582,37.461,41.905,36.592C1428.509,49.826,1463.414,1.531,1437.271-39.578Zm-41.715,81.1c-27.784,1.23-41.393-39.2-17.667-45.889,14.185-4,17.459,19.148,21.744,18.851s-2.891-7.573-1.748-8.562,4.462,4.853,11.129,2.677-7.129-4.26-6.176-5.545,9.65,3.568,9.824-.986c.1-2.584-9.353-5.346-8.586-7.223,1.143-2.794,8.895-5.54,6.524-10.468-.748-1.555-.5,2.947-5.667,2.754-5.286-.2-5.614-6.08-2.758-16.272,2.286-8.159,10.462-14.939,20-11.571,7.143,2.522,20.238,11.818,15.857,38.125S1420.054,40.434,1395.557,41.519Z" transform="translate(-1330 51.079)" fill="#fff"/>
      </g>
      <path id="Caminho_222-28" data-name="Caminho 222" d="M1385.446-38.476c-11.565-8.91-26.578-11.694-42.957,1.254-16.871,13.337-18.28,49.779,5.988,78.778C1310.856-10.1,1346.153-58.547,1385.446-38.476Z" transform="translate(-1330.007 46.547)" fill="#fff"/>
      <path id="Caminho_223-28" data-name="Caminho 223" d="M1825.027,310.091c-12.492,10.445-29.592,15.8-53.057,3.565,7.069,5.639,17.083,9.455,30.355,9.089,24.555-.677,54.649-36.175,45.764-72.171C1851.609,269.986,1844,294.228,1825.027,310.091Z" transform="translate(-1733.187 -221.048)" fill="#fff"/>
    </g>
    <g id="Grupo_396" data-name="Grupo 396" transform="translate(388 4856.244)" opacity="0.04">
      <g id="Grupo_312-29" data-name="Grupo 312" transform="translate(0 0)">
        <path id="Caminho_221-29" data-name="Caminho 221" d="M1437.271-39.578c-13.333-20.966-40.1-11.077-40.667,12.066-11.143-18.4-31.453-33.23-54.584-14.241s-16.083,84.807,49.536,109.308c-30.1-17.728-50.1-46.705-49.524-75.781s24.953-37.087,42.667-3.264c-12.952.2-24.423,8.752-25.714,25.516-1.143,14.835,11.582,37.461,41.905,36.592C1428.509,49.826,1463.414,1.531,1437.271-39.578Zm-41.715,81.1c-27.784,1.23-41.393-39.2-17.667-45.889,14.185-4,17.459,19.148,21.744,18.851s-2.891-7.573-1.748-8.562,4.462,4.853,11.129,2.677-7.129-4.26-6.176-5.545,9.65,3.568,9.824-.986c.1-2.584-9.353-5.346-8.586-7.223,1.143-2.794,8.895-5.54,6.524-10.468-.748-1.555-.5,2.947-5.667,2.754-5.286-.2-5.614-6.08-2.758-16.272,2.286-8.159,10.462-14.939,20-11.571,7.143,2.522,20.238,11.818,15.857,38.125S1420.054,40.434,1395.557,41.519Z" transform="translate(-1330 51.079)" fill="#fff"/>
      </g>
      <path id="Caminho_222-29" data-name="Caminho 222" d="M1385.446-38.476c-11.565-8.91-26.578-11.694-42.957,1.254-16.871,13.337-18.28,49.779,5.988,78.778C1310.856-10.1,1346.153-58.547,1385.446-38.476Z" transform="translate(-1330.007 46.547)" fill="#fff"/>
      <path id="Caminho_223-29" data-name="Caminho 223" d="M1825.027,310.091c-12.492,10.445-29.592,15.8-53.057,3.565,7.069,5.639,17.083,9.455,30.355,9.089,24.555-.677,54.649-36.175,45.764-72.171C1851.609,269.986,1844,294.228,1825.027,310.091Z" transform="translate(-1733.187 -221.048)" fill="#fff"/>
    </g>
    <g id="Grupo_412" data-name="Grupo 412" transform="translate(901.75 4856.244)" opacity="0.04">
      <g id="Grupo_312-30" data-name="Grupo 312" transform="translate(0 0)">
        <path id="Caminho_221-30" data-name="Caminho 221" d="M1437.271-39.578c-13.333-20.966-40.1-11.077-40.667,12.066-11.143-18.4-31.453-33.23-54.584-14.241s-16.083,84.807,49.536,109.308c-30.1-17.728-50.1-46.705-49.524-75.781s24.953-37.087,42.667-3.264c-12.952.2-24.423,8.752-25.714,25.516-1.143,14.835,11.582,37.461,41.905,36.592C1428.509,49.826,1463.414,1.531,1437.271-39.578Zm-41.715,81.1c-27.784,1.23-41.393-39.2-17.667-45.889,14.185-4,17.459,19.148,21.744,18.851s-2.891-7.573-1.748-8.562,4.462,4.853,11.129,2.677-7.129-4.26-6.176-5.545,9.65,3.568,9.824-.986c.1-2.584-9.353-5.346-8.586-7.223,1.143-2.794,8.895-5.54,6.524-10.468-.748-1.555-.5,2.947-5.667,2.754-5.286-.2-5.614-6.08-2.758-16.272,2.286-8.159,10.462-14.939,20-11.571,7.143,2.522,20.238,11.818,15.857,38.125S1420.054,40.434,1395.557,41.519Z" transform="translate(-1330 51.079)" fill="#fff"/>
      </g>
      <path id="Caminho_222-30" data-name="Caminho 222" d="M1385.446-38.476c-11.565-8.91-26.578-11.694-42.957,1.254-16.871,13.337-18.28,49.779,5.988,78.778C1310.856-10.1,1346.153-58.547,1385.446-38.476Z" transform="translate(-1330.007 46.547)" fill="#fff"/>
      <path id="Caminho_223-30" data-name="Caminho 223" d="M1825.027,310.091c-12.492,10.445-29.592,15.8-53.057,3.565,7.069,5.639,17.083,9.455,30.355,9.089,24.555-.677,54.649-36.175,45.764-72.171C1851.609,269.986,1844,294.228,1825.027,310.091Z" transform="translate(-1733.187 -221.048)" fill="#fff"/>
    </g>
    <g id="Grupo_428" data-name="Grupo 428" transform="translate(1415.5 4856.244)" opacity="0.04">
      <g id="Grupo_312-31" data-name="Grupo 312" transform="translate(0 0)">
        <path id="Caminho_221-31" data-name="Caminho 221" d="M1437.271-39.578c-13.333-20.966-40.1-11.077-40.667,12.066-11.143-18.4-31.453-33.23-54.584-14.241s-16.083,84.807,49.536,109.308c-30.1-17.728-50.1-46.705-49.524-75.781s24.953-37.087,42.667-3.264c-12.952.2-24.423,8.752-25.714,25.516-1.143,14.835,11.582,37.461,41.905,36.592C1428.509,49.826,1463.414,1.531,1437.271-39.578Zm-41.715,81.1c-27.784,1.23-41.393-39.2-17.667-45.889,14.185-4,17.459,19.148,21.744,18.851s-2.891-7.573-1.748-8.562,4.462,4.853,11.129,2.677-7.129-4.26-6.176-5.545,9.65,3.568,9.824-.986c.1-2.584-9.353-5.346-8.586-7.223,1.143-2.794,8.895-5.54,6.524-10.468-.748-1.555-.5,2.947-5.667,2.754-5.286-.2-5.614-6.08-2.758-16.272,2.286-8.159,10.462-14.939,20-11.571,7.143,2.522,20.238,11.818,15.857,38.125S1420.054,40.434,1395.557,41.519Z" transform="translate(-1330 51.079)" fill="#fff"/>
      </g>
      <path id="Caminho_222-31" data-name="Caminho 222" d="M1385.446-38.476c-11.565-8.91-26.578-11.694-42.957,1.254-16.871,13.337-18.28,49.779,5.988,78.778C1310.856-10.1,1346.153-58.547,1385.446-38.476Z" transform="translate(-1330.007 46.547)" fill="#fff"/>
      <path id="Caminho_223-31" data-name="Caminho 223" d="M1825.027,310.091c-12.492,10.445-29.592,15.8-53.057,3.565,7.069,5.639,17.083,9.455,30.355,9.089,24.555-.677,54.649-36.175,45.764-72.171C1851.609,269.986,1844,294.228,1825.027,310.091Z" transform="translate(-1733.187 -221.048)" fill="#fff"/>
    </g>
    <g id="Grupo_400" data-name="Grupo 400" transform="translate(645.85 4856.244)" opacity="0.04">
      <g id="Grupo_312-32" data-name="Grupo 312" transform="translate(0 0)">
        <path id="Caminho_221-32" data-name="Caminho 221" d="M1437.271-39.578c-13.333-20.966-40.1-11.077-40.667,12.066-11.143-18.4-31.453-33.23-54.584-14.241s-16.083,84.807,49.536,109.308c-30.1-17.728-50.1-46.705-49.524-75.781s24.953-37.087,42.667-3.264c-12.952.2-24.423,8.752-25.714,25.516-1.143,14.835,11.582,37.461,41.905,36.592C1428.509,49.826,1463.414,1.531,1437.271-39.578Zm-41.715,81.1c-27.784,1.23-41.393-39.2-17.667-45.889,14.185-4,17.459,19.148,21.744,18.851s-2.891-7.573-1.748-8.562,4.462,4.853,11.129,2.677-7.129-4.26-6.176-5.545,9.65,3.568,9.824-.986c.1-2.584-9.353-5.346-8.586-7.223,1.143-2.794,8.895-5.54,6.524-10.468-.748-1.555-.5,2.947-5.667,2.754-5.286-.2-5.614-6.08-2.758-16.272,2.286-8.159,10.462-14.939,20-11.571,7.143,2.522,20.238,11.818,15.857,38.125S1420.054,40.434,1395.557,41.519Z" transform="translate(-1330 51.079)" fill="#fff"/>
      </g>
      <path id="Caminho_222-32" data-name="Caminho 222" d="M1385.446-38.476c-11.565-8.91-26.578-11.694-42.957,1.254-16.871,13.337-18.28,49.779,5.988,78.778C1310.856-10.1,1346.153-58.547,1385.446-38.476Z" transform="translate(-1330.007 46.547)" fill="#fff"/>
      <path id="Caminho_223-32" data-name="Caminho 223" d="M1825.027,310.091c-12.492,10.445-29.592,15.8-53.057,3.565,7.069,5.639,17.083,9.455,30.355,9.089,24.555-.677,54.649-36.175,45.764-72.171C1851.609,269.986,1844,294.228,1825.027,310.091Z" transform="translate(-1733.187 -221.048)" fill="#fff"/>
    </g>
    <g id="Grupo_411" data-name="Grupo 411" transform="translate(1157.65 4856.244)" opacity="0.04">
      <g id="Grupo_312-33" data-name="Grupo 312" transform="translate(0 0)">
        <path id="Caminho_221-33" data-name="Caminho 221" d="M1437.271-39.578c-13.333-20.966-40.1-11.077-40.667,12.066-11.143-18.4-31.453-33.23-54.584-14.241s-16.083,84.807,49.536,109.308c-30.1-17.728-50.1-46.705-49.524-75.781s24.953-37.087,42.667-3.264c-12.952.2-24.423,8.752-25.714,25.516-1.143,14.835,11.582,37.461,41.905,36.592C1428.509,49.826,1463.414,1.531,1437.271-39.578Zm-41.715,81.1c-27.784,1.23-41.393-39.2-17.667-45.889,14.185-4,17.459,19.148,21.744,18.851s-2.891-7.573-1.748-8.562,4.462,4.853,11.129,2.677-7.129-4.26-6.176-5.545,9.65,3.568,9.824-.986c.1-2.584-9.353-5.346-8.586-7.223,1.143-2.794,8.895-5.54,6.524-10.468-.748-1.555-.5,2.947-5.667,2.754-5.286-.2-5.614-6.08-2.758-16.272,2.286-8.159,10.462-14.939,20-11.571,7.143,2.522,20.238,11.818,15.857,38.125S1420.054,40.434,1395.557,41.519Z" transform="translate(-1330 51.079)" fill="#fff"/>
      </g>
      <path id="Caminho_222-33" data-name="Caminho 222" d="M1385.446-38.476c-11.565-8.91-26.578-11.694-42.957,1.254-16.871,13.337-18.28,49.779,5.988,78.778C1310.856-10.1,1346.153-58.547,1385.446-38.476Z" transform="translate(-1330.007 46.547)" fill="#fff"/>
      <path id="Caminho_223-33" data-name="Caminho 223" d="M1825.027,310.091c-12.492,10.445-29.592,15.8-53.057,3.565,7.069,5.639,17.083,9.455,30.355,9.089,24.555-.677,54.649-36.175,45.764-72.171C1851.609,269.986,1844,294.228,1825.027,310.091Z" transform="translate(-1733.187 -221.048)" fill="#fff"/>
    </g>
    <g id="Grupo_394" data-name="Grupo 394" transform="translate(262 4982.367)" opacity="0.04">
      <g id="Grupo_312-34" data-name="Grupo 312" transform="translate(0 0)">
        <path id="Caminho_221-34" data-name="Caminho 221" d="M1437.271-39.578c-13.333-20.966-40.1-11.077-40.667,12.066-11.143-18.4-31.453-33.23-54.584-14.241s-16.083,84.807,49.536,109.308c-30.1-17.728-50.1-46.705-49.524-75.781s24.953-37.087,42.667-3.264c-12.952.2-24.423,8.752-25.714,25.516-1.143,14.835,11.582,37.461,41.905,36.592C1428.509,49.826,1463.414,1.531,1437.271-39.578Zm-41.715,81.1c-27.784,1.23-41.393-39.2-17.667-45.889,14.185-4,17.459,19.148,21.744,18.851s-2.891-7.573-1.748-8.562,4.462,4.853,11.129,2.677-7.129-4.26-6.176-5.545,9.65,3.568,9.824-.986c.1-2.584-9.353-5.346-8.586-7.223,1.143-2.794,8.895-5.54,6.524-10.468-.748-1.555-.5,2.947-5.667,2.754-5.286-.2-5.614-6.08-2.758-16.272,2.286-8.159,10.462-14.939,20-11.571,7.143,2.522,20.238,11.818,15.857,38.125S1420.054,40.434,1395.557,41.519Z" transform="translate(-1330 51.079)" fill="#fff"/>
      </g>
      <path id="Caminho_222-34" data-name="Caminho 222" d="M1385.446-38.476c-11.565-8.91-26.578-11.694-42.957,1.254-16.871,13.337-18.28,49.779,5.988,78.778C1310.856-10.1,1346.153-58.547,1385.446-38.476Z" transform="translate(-1330.007 46.547)" fill="#fff"/>
      <path id="Caminho_223-34" data-name="Caminho 223" d="M1825.027,310.091c-12.492,10.445-29.592,15.8-53.057,3.565,7.069,5.639,17.083,9.455,30.355,9.089,24.555-.677,54.649-36.175,45.764-72.171C1851.609,269.986,1844,294.228,1825.027,310.091Z" transform="translate(-1733.187 -221.048)" fill="#fff"/>
    </g>
    <g id="Grupo_410" data-name="Grupo 410" transform="translate(773.8 4982.367)" opacity="0.04">
      <g id="Grupo_312-35" data-name="Grupo 312" transform="translate(0 0)">
        <path id="Caminho_221-35" data-name="Caminho 221" d="M1437.271-39.578c-13.333-20.966-40.1-11.077-40.667,12.066-11.143-18.4-31.453-33.23-54.584-14.241s-16.083,84.807,49.536,109.308c-30.1-17.728-50.1-46.705-49.524-75.781s24.953-37.087,42.667-3.264c-12.952.2-24.423,8.752-25.714,25.516-1.143,14.835,11.582,37.461,41.905,36.592C1428.509,49.826,1463.414,1.531,1437.271-39.578Zm-41.715,81.1c-27.784,1.23-41.393-39.2-17.667-45.889,14.185-4,17.459,19.148,21.744,18.851s-2.891-7.573-1.748-8.562,4.462,4.853,11.129,2.677-7.129-4.26-6.176-5.545,9.65,3.568,9.824-.986c.1-2.584-9.353-5.346-8.586-7.223,1.143-2.794,8.895-5.54,6.524-10.468-.748-1.555-.5,2.947-5.667,2.754-5.286-.2-5.614-6.08-2.758-16.272,2.286-8.159,10.462-14.939,20-11.571,7.143,2.522,20.238,11.818,15.857,38.125S1420.054,40.434,1395.557,41.519Z" transform="translate(-1330 51.079)" fill="#fff"/>
      </g>
      <path id="Caminho_222-35" data-name="Caminho 222" d="M1385.446-38.476c-11.565-8.91-26.578-11.694-42.957,1.254-16.871,13.337-18.28,49.779,5.988,78.778C1310.856-10.1,1346.153-58.547,1385.446-38.476Z" transform="translate(-1330.007 46.547)" fill="#fff"/>
      <path id="Caminho_223-35" data-name="Caminho 223" d="M1825.027,310.091c-12.492,10.445-29.592,15.8-53.057,3.565,7.069,5.639,17.083,9.455,30.355,9.089,24.555-.677,54.649-36.175,45.764-72.171C1851.609,269.986,1844,294.228,1825.027,310.091Z" transform="translate(-1733.187 -221.048)" fill="#fff"/>
    </g>
    <g id="Grupo_426" data-name="Grupo 426" transform="translate(1285.6 4982.367)" opacity="0.04">
      <g id="Grupo_312-36" data-name="Grupo 312" transform="translate(0 0)">
        <path id="Caminho_221-36" data-name="Caminho 221" d="M1437.271-39.578c-13.333-20.966-40.1-11.077-40.667,12.066-11.143-18.4-31.453-33.23-54.584-14.241s-16.083,84.807,49.536,109.308c-30.1-17.728-50.1-46.705-49.524-75.781s24.953-37.087,42.667-3.264c-12.952.2-24.423,8.752-25.714,25.516-1.143,14.835,11.582,37.461,41.905,36.592C1428.509,49.826,1463.414,1.531,1437.271-39.578Zm-41.715,81.1c-27.784,1.23-41.393-39.2-17.667-45.889,14.185-4,17.459,19.148,21.744,18.851s-2.891-7.573-1.748-8.562,4.462,4.853,11.129,2.677-7.129-4.26-6.176-5.545,9.65,3.568,9.824-.986c.1-2.584-9.353-5.346-8.586-7.223,1.143-2.794,8.895-5.54,6.524-10.468-.748-1.555-.5,2.947-5.667,2.754-5.286-.2-5.614-6.08-2.758-16.272,2.286-8.159,10.462-14.939,20-11.571,7.143,2.522,20.238,11.818,15.857,38.125S1420.054,40.434,1395.557,41.519Z" transform="translate(-1330 51.079)" fill="#fff"/>
      </g>
      <path id="Caminho_222-36" data-name="Caminho 222" d="M1385.446-38.476c-11.565-8.91-26.578-11.694-42.957,1.254-16.871,13.337-18.28,49.779,5.988,78.778C1310.856-10.1,1346.153-58.547,1385.446-38.476Z" transform="translate(-1330.007 46.547)" fill="#fff"/>
      <path id="Caminho_223-36" data-name="Caminho 223" d="M1825.027,310.091c-12.492,10.445-29.592,15.8-53.057,3.565,7.069,5.639,17.083,9.455,30.355,9.089,24.555-.677,54.649-36.175,45.764-72.171C1851.609,269.986,1844,294.228,1825.027,310.091Z" transform="translate(-1733.187 -221.048)" fill="#fff"/>
    </g>
    <g id="Grupo_406" data-name="Grupo 406" transform="translate(517.9 4982.367)" opacity="0.04">
      <g id="Grupo_312-37" data-name="Grupo 312" transform="translate(0 0)">
        <path id="Caminho_221-37" data-name="Caminho 221" d="M1437.271-39.578c-13.333-20.966-40.1-11.077-40.667,12.066-11.143-18.4-31.453-33.23-54.584-14.241s-16.083,84.807,49.536,109.308c-30.1-17.728-50.1-46.705-49.524-75.781s24.953-37.087,42.667-3.264c-12.952.2-24.423,8.752-25.714,25.516-1.143,14.835,11.582,37.461,41.905,36.592C1428.509,49.826,1463.414,1.531,1437.271-39.578Zm-41.715,81.1c-27.784,1.23-41.393-39.2-17.667-45.889,14.185-4,17.459,19.148,21.744,18.851s-2.891-7.573-1.748-8.562,4.462,4.853,11.129,2.677-7.129-4.26-6.176-5.545,9.65,3.568,9.824-.986c.1-2.584-9.353-5.346-8.586-7.223,1.143-2.794,8.895-5.54,6.524-10.468-.748-1.555-.5,2.947-5.667,2.754-5.286-.2-5.614-6.08-2.758-16.272,2.286-8.159,10.462-14.939,20-11.571,7.143,2.522,20.238,11.818,15.857,38.125S1420.054,40.434,1395.557,41.519Z" transform="translate(-1330 51.079)" fill="#fff"/>
      </g>
      <path id="Caminho_222-37" data-name="Caminho 222" d="M1385.446-38.476c-11.565-8.91-26.578-11.694-42.957,1.254-16.871,13.337-18.28,49.779,5.988,78.778C1310.856-10.1,1346.153-58.547,1385.446-38.476Z" transform="translate(-1330.007 46.547)" fill="#fff"/>
      <path id="Caminho_223-37" data-name="Caminho 223" d="M1825.027,310.091c-12.492,10.445-29.592,15.8-53.057,3.565,7.069,5.639,17.083,9.455,30.355,9.089,24.555-.677,54.649-36.175,45.764-72.171C1851.609,269.986,1844,294.228,1825.027,310.091Z" transform="translate(-1733.187 -221.048)" fill="#fff"/>
    </g>
    <g id="Grupo_409" data-name="Grupo 409" transform="translate(1029.7 4982.367)" opacity="0.04">
      <g id="Grupo_312-38" data-name="Grupo 312" transform="translate(0 0)">
        <path id="Caminho_221-38" data-name="Caminho 221" d="M1437.271-39.578c-13.333-20.966-40.1-11.077-40.667,12.066-11.143-18.4-31.453-33.23-54.584-14.241s-16.083,84.807,49.536,109.308c-30.1-17.728-50.1-46.705-49.524-75.781s24.953-37.087,42.667-3.264c-12.952.2-24.423,8.752-25.714,25.516-1.143,14.835,11.582,37.461,41.905,36.592C1428.509,49.826,1463.414,1.531,1437.271-39.578Zm-41.715,81.1c-27.784,1.23-41.393-39.2-17.667-45.889,14.185-4,17.459,19.148,21.744,18.851s-2.891-7.573-1.748-8.562,4.462,4.853,11.129,2.677-7.129-4.26-6.176-5.545,9.65,3.568,9.824-.986c.1-2.584-9.353-5.346-8.586-7.223,1.143-2.794,8.895-5.54,6.524-10.468-.748-1.555-.5,2.947-5.667,2.754-5.286-.2-5.614-6.08-2.758-16.272,2.286-8.159,10.462-14.939,20-11.571,7.143,2.522,20.238,11.818,15.857,38.125S1420.054,40.434,1395.557,41.519Z" transform="translate(-1330 51.079)" fill="#fff"/>
      </g>
      <path id="Caminho_222-38" data-name="Caminho 222" d="M1385.446-38.476c-11.565-8.91-26.578-11.694-42.957,1.254-16.871,13.337-18.28,49.779,5.988,78.778C1310.856-10.1,1346.153-58.547,1385.446-38.476Z" transform="translate(-1330.007 46.547)" fill="#fff"/>
      <path id="Caminho_223-38" data-name="Caminho 223" d="M1825.027,310.091c-12.492,10.445-29.592,15.8-53.057,3.565,7.069,5.639,17.083,9.455,30.355,9.089,24.555-.677,54.649-36.175,45.764-72.171C1851.609,269.986,1844,294.228,1825.027,310.091Z" transform="translate(-1733.187 -221.048)" fill="#fff"/>
    </g>
    <g id="Grupo_425" data-name="Grupo 425" transform="translate(1541.5 4982.367)" opacity="0.04">
      <g id="Grupo_312-39" data-name="Grupo 312" transform="translate(0 0)">
        <path id="Caminho_221-39" data-name="Caminho 221" d="M1437.271-39.578c-13.333-20.966-40.1-11.077-40.667,12.066-11.143-18.4-31.453-33.23-54.584-14.241s-16.083,84.807,49.536,109.308c-30.1-17.728-50.1-46.705-49.524-75.781s24.953-37.087,42.667-3.264c-12.952.2-24.423,8.752-25.714,25.516-1.143,14.835,11.582,37.461,41.905,36.592C1428.509,49.826,1463.414,1.531,1437.271-39.578Zm-41.715,81.1c-27.784,1.23-41.393-39.2-17.667-45.889,14.185-4,17.459,19.148,21.744,18.851s-2.891-7.573-1.748-8.562,4.462,4.853,11.129,2.677-7.129-4.26-6.176-5.545,9.65,3.568,9.824-.986c.1-2.584-9.353-5.346-8.586-7.223,1.143-2.794,8.895-5.54,6.524-10.468-.748-1.555-.5,2.947-5.667,2.754-5.286-.2-5.614-6.08-2.758-16.272,2.286-8.159,10.462-14.939,20-11.571,7.143,2.522,20.238,11.818,15.857,38.125S1420.054,40.434,1395.557,41.519Z" transform="translate(-1330 51.079)" fill="#fff"/>
      </g>
      <path id="Caminho_222-39" data-name="Caminho 222" d="M1385.446-38.476c-11.565-8.91-26.578-11.694-42.957,1.254-16.871,13.337-18.28,49.779,5.988,78.778C1310.856-10.1,1346.153-58.547,1385.446-38.476Z" transform="translate(-1330.007 46.547)" fill="#fff"/>
      <path id="Caminho_223-39" data-name="Caminho 223" d="M1825.027,310.091c-12.492,10.445-29.592,15.8-53.057,3.565,7.069,5.639,17.083,9.455,30.355,9.089,24.555-.677,54.649-36.175,45.764-72.171C1851.609,269.986,1844,294.228,1825.027,310.091Z" transform="translate(-1733.187 -221.048)" fill="#fff"/>
    </g>
    <g id="Grupo_395" data-name="Grupo 395" transform="translate(388 4982.367)" opacity="0.04">
      <g id="Grupo_312-40" data-name="Grupo 312" transform="translate(0 0)">
        <path id="Caminho_221-40" data-name="Caminho 221" d="M1437.271-39.578c-13.333-20.966-40.1-11.077-40.667,12.066-11.143-18.4-31.453-33.23-54.584-14.241s-16.083,84.807,49.536,109.308c-30.1-17.728-50.1-46.705-49.524-75.781s24.953-37.087,42.667-3.264c-12.952.2-24.423,8.752-25.714,25.516-1.143,14.835,11.582,37.461,41.905,36.592C1428.509,49.826,1463.414,1.531,1437.271-39.578Zm-41.715,81.1c-27.784,1.23-41.393-39.2-17.667-45.889,14.185-4,17.459,19.148,21.744,18.851s-2.891-7.573-1.748-8.562,4.462,4.853,11.129,2.677-7.129-4.26-6.176-5.545,9.65,3.568,9.824-.986c.1-2.584-9.353-5.346-8.586-7.223,1.143-2.794,8.895-5.54,6.524-10.468-.748-1.555-.5,2.947-5.667,2.754-5.286-.2-5.614-6.08-2.758-16.272,2.286-8.159,10.462-14.939,20-11.571,7.143,2.522,20.238,11.818,15.857,38.125S1420.054,40.434,1395.557,41.519Z" transform="translate(-1330 51.079)" fill="#fff"/>
      </g>
      <path id="Caminho_222-40" data-name="Caminho 222" d="M1385.446-38.476c-11.565-8.91-26.578-11.694-42.957,1.254-16.871,13.337-18.28,49.779,5.988,78.778C1310.856-10.1,1346.153-58.547,1385.446-38.476Z" transform="translate(-1330.007 46.547)" fill="#fff"/>
      <path id="Caminho_223-40" data-name="Caminho 223" d="M1825.027,310.091c-12.492,10.445-29.592,15.8-53.057,3.565,7.069,5.639,17.083,9.455,30.355,9.089,24.555-.677,54.649-36.175,45.764-72.171C1851.609,269.986,1844,294.228,1825.027,310.091Z" transform="translate(-1733.187 -221.048)" fill="#fff"/>
    </g>
    <g id="Grupo_408" data-name="Grupo 408" transform="translate(901.75 4982.367)" opacity="0.04">
      <g id="Grupo_312-41" data-name="Grupo 312" transform="translate(0 0)">
        <path id="Caminho_221-41" data-name="Caminho 221" d="M1437.271-39.578c-13.333-20.966-40.1-11.077-40.667,12.066-11.143-18.4-31.453-33.23-54.584-14.241s-16.083,84.807,49.536,109.308c-30.1-17.728-50.1-46.705-49.524-75.781s24.953-37.087,42.667-3.264c-12.952.2-24.423,8.752-25.714,25.516-1.143,14.835,11.582,37.461,41.905,36.592C1428.509,49.826,1463.414,1.531,1437.271-39.578Zm-41.715,81.1c-27.784,1.23-41.393-39.2-17.667-45.889,14.185-4,17.459,19.148,21.744,18.851s-2.891-7.573-1.748-8.562,4.462,4.853,11.129,2.677-7.129-4.26-6.176-5.545,9.65,3.568,9.824-.986c.1-2.584-9.353-5.346-8.586-7.223,1.143-2.794,8.895-5.54,6.524-10.468-.748-1.555-.5,2.947-5.667,2.754-5.286-.2-5.614-6.08-2.758-16.272,2.286-8.159,10.462-14.939,20-11.571,7.143,2.522,20.238,11.818,15.857,38.125S1420.054,40.434,1395.557,41.519Z" transform="translate(-1330 51.079)" fill="#fff"/>
      </g>
      <path id="Caminho_222-41" data-name="Caminho 222" d="M1385.446-38.476c-11.565-8.91-26.578-11.694-42.957,1.254-16.871,13.337-18.28,49.779,5.988,78.778C1310.856-10.1,1346.153-58.547,1385.446-38.476Z" transform="translate(-1330.007 46.547)" fill="#fff"/>
      <path id="Caminho_223-41" data-name="Caminho 223" d="M1825.027,310.091c-12.492,10.445-29.592,15.8-53.057,3.565,7.069,5.639,17.083,9.455,30.355,9.089,24.555-.677,54.649-36.175,45.764-72.171C1851.609,269.986,1844,294.228,1825.027,310.091Z" transform="translate(-1733.187 -221.048)" fill="#fff"/>
    </g>
    <g id="Grupo_424" data-name="Grupo 424" transform="translate(1415.5 4982.367)" opacity="0.04">
      <g id="Grupo_312-42" data-name="Grupo 312" transform="translate(0 0)">
        <path id="Caminho_221-42" data-name="Caminho 221" d="M1437.271-39.578c-13.333-20.966-40.1-11.077-40.667,12.066-11.143-18.4-31.453-33.23-54.584-14.241s-16.083,84.807,49.536,109.308c-30.1-17.728-50.1-46.705-49.524-75.781s24.953-37.087,42.667-3.264c-12.952.2-24.423,8.752-25.714,25.516-1.143,14.835,11.582,37.461,41.905,36.592C1428.509,49.826,1463.414,1.531,1437.271-39.578Zm-41.715,81.1c-27.784,1.23-41.393-39.2-17.667-45.889,14.185-4,17.459,19.148,21.744,18.851s-2.891-7.573-1.748-8.562,4.462,4.853,11.129,2.677-7.129-4.26-6.176-5.545,9.65,3.568,9.824-.986c.1-2.584-9.353-5.346-8.586-7.223,1.143-2.794,8.895-5.54,6.524-10.468-.748-1.555-.5,2.947-5.667,2.754-5.286-.2-5.614-6.08-2.758-16.272,2.286-8.159,10.462-14.939,20-11.571,7.143,2.522,20.238,11.818,15.857,38.125S1420.054,40.434,1395.557,41.519Z" transform="translate(-1330 51.079)" fill="#fff"/>
      </g>
      <path id="Caminho_222-42" data-name="Caminho 222" d="M1385.446-38.476c-11.565-8.91-26.578-11.694-42.957,1.254-16.871,13.337-18.28,49.779,5.988,78.778C1310.856-10.1,1346.153-58.547,1385.446-38.476Z" transform="translate(-1330.007 46.547)" fill="#fff"/>
      <path id="Caminho_223-42" data-name="Caminho 223" d="M1825.027,310.091c-12.492,10.445-29.592,15.8-53.057,3.565,7.069,5.639,17.083,9.455,30.355,9.089,24.555-.677,54.649-36.175,45.764-72.171C1851.609,269.986,1844,294.228,1825.027,310.091Z" transform="translate(-1733.187 -221.048)" fill="#fff"/>
    </g>
    <g id="Grupo_399" data-name="Grupo 399" transform="translate(645.85 4982.367)" opacity="0.04">
      <g id="Grupo_312-43" data-name="Grupo 312" transform="translate(0 0)">
        <path id="Caminho_221-43" data-name="Caminho 221" d="M1437.271-39.578c-13.333-20.966-40.1-11.077-40.667,12.066-11.143-18.4-31.453-33.23-54.584-14.241s-16.083,84.807,49.536,109.308c-30.1-17.728-50.1-46.705-49.524-75.781s24.953-37.087,42.667-3.264c-12.952.2-24.423,8.752-25.714,25.516-1.143,14.835,11.582,37.461,41.905,36.592C1428.509,49.826,1463.414,1.531,1437.271-39.578Zm-41.715,81.1c-27.784,1.23-41.393-39.2-17.667-45.889,14.185-4,17.459,19.148,21.744,18.851s-2.891-7.573-1.748-8.562,4.462,4.853,11.129,2.677-7.129-4.26-6.176-5.545,9.65,3.568,9.824-.986c.1-2.584-9.353-5.346-8.586-7.223,1.143-2.794,8.895-5.54,6.524-10.468-.748-1.555-.5,2.947-5.667,2.754-5.286-.2-5.614-6.08-2.758-16.272,2.286-8.159,10.462-14.939,20-11.571,7.143,2.522,20.238,11.818,15.857,38.125S1420.054,40.434,1395.557,41.519Z" transform="translate(-1330 51.079)" fill="#fff"/>
      </g>
      <path id="Caminho_222-43" data-name="Caminho 222" d="M1385.446-38.476c-11.565-8.91-26.578-11.694-42.957,1.254-16.871,13.337-18.28,49.779,5.988,78.778C1310.856-10.1,1346.153-58.547,1385.446-38.476Z" transform="translate(-1330.007 46.547)" fill="#fff"/>
      <path id="Caminho_223-43" data-name="Caminho 223" d="M1825.027,310.091c-12.492,10.445-29.592,15.8-53.057,3.565,7.069,5.639,17.083,9.455,30.355,9.089,24.555-.677,54.649-36.175,45.764-72.171C1851.609,269.986,1844,294.228,1825.027,310.091Z" transform="translate(-1733.187 -221.048)" fill="#fff"/>
    </g>
    <g id="Grupo_407" data-name="Grupo 407" transform="translate(1157.65 4982.367)" opacity="0.04">
      <g id="Grupo_312-44" data-name="Grupo 312" transform="translate(0 0)">
        <path id="Caminho_221-44" data-name="Caminho 221" d="M1437.271-39.578c-13.333-20.966-40.1-11.077-40.667,12.066-11.143-18.4-31.453-33.23-54.584-14.241s-16.083,84.807,49.536,109.308c-30.1-17.728-50.1-46.705-49.524-75.781s24.953-37.087,42.667-3.264c-12.952.2-24.423,8.752-25.714,25.516-1.143,14.835,11.582,37.461,41.905,36.592C1428.509,49.826,1463.414,1.531,1437.271-39.578Zm-41.715,81.1c-27.784,1.23-41.393-39.2-17.667-45.889,14.185-4,17.459,19.148,21.744,18.851s-2.891-7.573-1.748-8.562,4.462,4.853,11.129,2.677-7.129-4.26-6.176-5.545,9.65,3.568,9.824-.986c.1-2.584-9.353-5.346-8.586-7.223,1.143-2.794,8.895-5.54,6.524-10.468-.748-1.555-.5,2.947-5.667,2.754-5.286-.2-5.614-6.08-2.758-16.272,2.286-8.159,10.462-14.939,20-11.571,7.143,2.522,20.238,11.818,15.857,38.125S1420.054,40.434,1395.557,41.519Z" transform="translate(-1330 51.079)" fill="#fff"/>
      </g>
      <path id="Caminho_222-44" data-name="Caminho 222" d="M1385.446-38.476c-11.565-8.91-26.578-11.694-42.957,1.254-16.871,13.337-18.28,49.779,5.988,78.778C1310.856-10.1,1346.153-58.547,1385.446-38.476Z" transform="translate(-1330.007 46.547)" fill="#fff"/>
      <path id="Caminho_223-44" data-name="Caminho 223" d="M1825.027,310.091c-12.492,10.445-29.592,15.8-53.057,3.565,7.069,5.639,17.083,9.455,30.355,9.089,24.555-.677,54.649-36.175,45.764-72.171C1851.609,269.986,1844,294.228,1825.027,310.091Z" transform="translate(-1733.187 -221.048)" fill="#fff"/>
    </g>
  </g>
</svg>
