<svg xmlns="http://www.w3.org/2000/svg" width="100.799" height="75.039" viewBox="0 0 100.799 75.039">
  <g id="Grupo_107" data-name="Grupo 107" transform="translate(-360.586 -826.111)">
    <g id="Grupo_97" data-name="Grupo 97">
      <path id="Caminho_70" data-name="Caminho 70" d="M410.986,901.15a37.347,37.347,0,0,1-37.3-37.305,34.948,34.948,0,0,1,.3-4.506,16.784,16.784,0,1,1,16.64-26.717,37.119,37.119,0,0,1,40.723,0,16.772,16.772,0,0,1,30.01,9.283h0a16.892,16.892,0,0,1-13.369,17.434,35.122,35.122,0,0,1,.3,4.506A37.347,37.347,0,0,1,410.986,901.15Zm-33.631-71.689c-.149,0-.3,0-.446.007a13.437,13.437,0,0,0-1.4,26.736,2.269,2.269,0,0,1,1.517.9,2.237,2.237,0,0,1,.42,1.692,32.919,32.919,0,0,0-.414,5.053,33.956,33.956,0,0,0,67.913,0,32.919,32.919,0,0,0-.414-5.053,2.237,2.237,0,0,1,.42-1.692,2.269,2.269,0,0,1,1.517-.9,13.514,13.514,0,0,0,11.55-14.106h0a13.426,13.426,0,0,0-24.823-6.271,1.676,1.676,0,0,1-2.4.475,33.781,33.781,0,0,0-39.608,0,1.676,1.676,0,0,1-2.4-.475A13.491,13.491,0,0,0,377.355,829.461Z" fill="#f1f1f1"/>
    </g>
    <g id="Grupo_100" data-name="Grupo 100">
      <g id="Grupo_98" data-name="Grupo 98">
        <path id="Caminho_71" data-name="Caminho 71" d="M392.3,864.473a4.044,4.044,0,1,1,4.044,4.044A4.044,4.044,0,0,1,392.3,864.473Z" fill="#f1f1f1"/>
      </g>
      <g id="Grupo_99" data-name="Grupo 99">
        <path id="Caminho_72" data-name="Caminho 72" d="M421.579,864.473a4.043,4.043,0,1,1,4.043,4.044A4.043,4.043,0,0,1,421.579,864.473Z" fill="#f1f1f1"/>
      </g>
    </g>
    <g id="Grupo_104" data-name="Grupo 104">
      <g id="Grupo_101" data-name="Grupo 101">
        <path id="Caminho_73" data-name="Caminho 73" d="M410.986,900.5a19.778,19.778,0,1,1,19.778-19.778A19.8,19.8,0,0,1,410.986,900.5Zm0-36.208a16.43,16.43,0,1,0,16.429,16.43A16.449,16.449,0,0,0,410.986,864.3Z" fill="#f1f1f1"/>
      </g>
      <g id="Grupo_102" data-name="Grupo 102">
        <path id="Caminho_74" data-name="Caminho 74" d="M405.367,880.726a5.618,5.618,0,1,1,5.619,5.619A5.619,5.619,0,0,1,405.367,880.726Z" fill="#f1f1f1"/>
      </g>
      <g id="Grupo_103" data-name="Grupo 103">
        <path id="Caminho_75" data-name="Caminho 75" d="M410.986,901.15a1.675,1.675,0,0,1-1.675-1.675V883.091a1.674,1.674,0,1,1,3.349,0v16.384A1.675,1.675,0,0,1,410.986,901.15Z" fill="#f1f1f1"/>
      </g>
    </g>
    <g id="Grupo_105" data-name="Grupo 105">
      <path id="Caminho_76" data-name="Caminho 76" d="M444.631,850.617a4.005,4.005,0,0,1-.54-.043l-1.022-.086-.493-.963a26.758,26.758,0,0,0-4.82-7.69l-.68-.763.37-.955a7.713,7.713,0,1,1,7.185,10.5Zm-3.626-10.138a30.083,30.083,0,0,1,4.218,6.731,4.361,4.361,0,1,0-4.218-6.731Z" fill="#f1f1f1"/>
    </g>
    <g id="Grupo_106" data-name="Grupo 106">
      <path id="Caminho_77" data-name="Caminho 77" d="M377.34,850.617a7.719,7.719,0,1,1,7.186-10.5l.37.954-.681.765a26.762,26.762,0,0,0-4.82,7.689l-.387.949-1.126.1A3.881,3.881,0,0,1,377.34,850.617Zm.505-1.725h0Zm-.505-10.364a4.371,4.371,0,0,0-.6,8.7,30.117,30.117,0,0,1,4.227-6.749A4.321,4.321,0,0,0,377.34,838.528Z" fill="#f1f1f1"/>
    </g>
  </g>
</svg>
